<?xml version="1.0" encoding="UTF-8"?>
<svg xmlns="http://www.w3.org/2000/svg" xmlns:xlink="http://www.w3.org/1999/xlink" version="1.2" >
<font id="Gentleman 200 Thin">
<font-face  font-family="Gentleman 200" units-per-em="1000" ascent="750" descent="-250" font-style="normal" font-weight="200" font-stretch="normal" cap-height="700" x-height="500" underline-position="-75" underline-thickness="50" />
<missing-glyph  horiz-adv-x="606" d="M50 700 L50 0 L556 0 L556 700 L50 700 Z M70 681 L536 681 L536 19 L70 19 L70 681 Z " />
<glyph glyph-name="NULL" d="" />
<glyph glyph-name="&amp;#x0;" horiz-adv-x="250" d="" />
<glyph glyph-name="&amp;#xd;" unicode="&#xd;" horiz-adv-x="250" d="" />
<glyph glyph-name="space" unicode="&#x20;" horiz-adv-x="290" d="" />
<glyph glyph-name="exclam" unicode="&#x21;" horiz-adv-x="250" d="M115 190 L135 190 L135 700 L115 700 L115 190 Z M115 0 L135 0 L135 85 L115 85 L115 0 Z " />
<glyph glyph-name="quotedbl" unicode="&#x22;" horiz-adv-x="325" d="M81 468 L101 468 L101 700 L81 700 L81 468 Z M224 468 L244 468 L244 700 L224 700 L224 468 Z " />
<glyph glyph-name="numbersign" unicode="&#x23;" horiz-adv-x="575" d="M71 452 L200 452 L173 251 L48 251 L48 233 L170 233 L139 0 L159 0 L191 233 L362 233 L331 0 L351 0 L383 233 L505 233 L505 251 L385 251 L413 452 L528 452 L528 470 L415 470 L447 700 L427 700 L395 470 L223 470 L255 700 L235 700 L203 470 L71 470 L71 452 Z M221 452 L392 452 L365 251 L193 251 L221 452 Z " />
<glyph glyph-name="dollar" unicode="&#x24;" horiz-adv-x="529" d="M481 149 C481 267 376 314 272 365 C176 411 82 453 82 549 C82 626 162 693 279 693 C392 693 451 630 451 630 L465 644 C465 645 402 710 284 712 L284 802 L264 802 L264 711 C143 705 61 632 61 549 C61 443 164 394 262 347 C359 300 460 253 460 149 C460 77 388 7 269 7 C136 7 62 91 62 91 L48 78 C48 78 124 -9 264 -12 L264 -101 L284 -101 L284 -11 C406 -5 481 71 481 149 L481 149 Z " />
<glyph glyph-name="percent" unicode="&#x25;" horiz-adv-x="810" d="M371 539 C371 632 298 704 205 704 C112 704 39 632 39 539 C39 446 112 374 205 374 C298 374 371 446 371 539 L371 539 Z M771 161 C771 254 698 326 605 326 C512 326 439 254 439 161 C439 68 512 -4 605 -4 C698 -4 771 68 771 161 L771 161 Z M350 539 C350 457 287 393 205 393 C123 393 60 457 60 539 C60 621 123 685 205 685 C287 685 350 621 350 539 L350 539 Z M750 161 C750 79 687 15 605 15 C523 15 460 79 460 161 C460 243 523 307 605 307 C687 307 750 243 750 161 L750 161 Z M616 718 L170 -18 L192 -18 L638 718 L616 718 Z " />
<glyph glyph-name="ampersand" unicode="&#x26;" horiz-adv-x="710" d="M190 563 C191 646 249 693 321 693 C390 693 447 649 447 571 C447 497 370 440 286 397 C241 445 190 503 190 563 L190 563 Z M287 7 C189 7 109 65 109 168 C109 266 175 315 282 370 L491 145 C440 62 386 7 287 7 L287 7 Z M170 563 C170 499 222 436 269 386 C156 327 88 275 88 168 C88 52 178 -12 287 -12 C394 -12 449 43 504 130 L624 0 L651 0 L515 147 L655 376 L633 376 L502 163 L300 381 C387 427 468 489 468 571 C468 662 401 712 321 712 C238 712 170 659 170 563 L170 563 Z " />
<glyph glyph-name="quotesingle" unicode="&#x27;" horiz-adv-x="182" d="M81 468 L101 468 L101 700 L81 700 L81 468 Z " />
<glyph glyph-name="parenleft" unicode="&#x28;" horiz-adv-x="247" d="M194 713 C113 607 54 449 54 285 C54 121 113 -37 194 -143 L209 -131 C131 -29 74 124 74 285 C74 446 131 599 209 701 L194 713 Z " />
<glyph glyph-name="parenright" unicode="&#x29;" horiz-adv-x="247" d="M38 701 C116 599 173 446 173 285 C173 124 116 -29 38 -131 L53 -143 C135 -37 193 121 193 285 C193 449 135 607 53 713 L38 701 Z " />
<glyph glyph-name="asterisk" unicode="&#x2a;" horiz-adv-x="485" d="M363 371 L255 516 L422 566 L416 584 L250 534 L250 700 L230 700 L230 534 L67 587 L61 569 L225 517 L118 371 L134 361 L240 506 L347 361 L363 371 Z " />
<glyph glyph-name="plus" unicode="&#x2b;" horiz-adv-x="637" d="M46 315 L309 315 L309 51 L329 51 L329 315 L591 315 L591 333 L329 333 L329 596 L309 596 L309 333 L46 333 L46 315 Z " />
<glyph glyph-name="comma" unicode="&#x2c;" horiz-adv-x="148" d="M28 -140 L102 95 L80 95 L7 -140 L28 -140 Z " />
<glyph glyph-name="hyphen" unicode="&#x2d;" horiz-adv-x="352" d="M56 251 L296 251 L296 269 L56 269 L56 251 Z " />
<glyph glyph-name="period" unicode="&#x2e;" horiz-adv-x="140" d="M60 0 L80 0 L80 85 L60 85 L60 0 Z " />
<glyph glyph-name="slash" unicode="&#x2f;" horiz-adv-x="403" d="M342 716 L39 -9 L62 -9 L365 716 L342 716 Z " />
<glyph glyph-name="zero" unicode="0" horiz-adv-x="586" d="M294 712 C121 712 68 528 68 349 C68 170 121 -12 294 -12 C465 -12 520 170 520 349 C520 528 465 712 294 712 L294 712 Z M294 693 C449 693 499 519 499 349 C499 179 449 7 294 7 C137 7 89 179 89 349 C89 519 137 693 294 693 L294 693 Z " />
<glyph glyph-name="one" unicode="1" horiz-adv-x="306" d="M167 679 L169 679 L169 0 L189 0 L189 700 L163 700 L23 585 L36 571 L167 679 Z " />
<glyph glyph-name="two" unicode="2" horiz-adv-x="547" d="M497 19 L77 19 L77 36 C77 278 486 330 486 534 C486 623 407 712 273 712 C125 712 61 586 61 586 C66 583 72 580 78 577 C78 577 137 693 273 693 C393 693 465 615 465 534 C465 342 56 289 56 36 L56 0 L497 0 L497 19 Z " />
<glyph glyph-name="three" unicode="3" horiz-adv-x="562" d="M280 351 C352 350 467 301 467 183 C467 61 387 7 261 7 C106 7 64 131 64 131 L46 125 C46 125 92 -12 262 -12 C399 -12 487 48 487 183 C487 289 400 347 326 360 L326 362 C394 376 468 435 468 533 C468 623 405 712 265 712 C115 712 72 602 72 602 L89 595 C89 595 128 693 266 693 C390 693 447 614 447 533 C447 427 357 372 285 370 L232 370 L232 351 L280 351 Z " />
<glyph glyph-name="four" unicode="4" horiz-adv-x="556" d="M26 218 L26 193 L375 193 L375 0 L395 0 L395 193 L524 193 L524 211 L395 211 L395 700 L368 700 L26 218 Z M373 673 L375 673 L375 211 L46 211 L46 213 L373 673 Z " />
<glyph glyph-name="five" unicode="5" horiz-adv-x="539" d="M457 700 L103 700 L97 371 L112 364 C129 376 184 413 260 413 C400 413 468 322 468 220 C468 120 382 7 255 7 C163 7 98 53 63 124 L46 115 C84 38 155 -12 255 -12 C395 -12 489 110 489 220 C489 332 413 432 260 432 C188 432 137 402 119 390 C118 390 118 391 117 391 L123 681 L457 681 L457 700 Z " />
<glyph glyph-name="six" unicode="6" horiz-adv-x="583" d="M315 429 C430 429 512 343 512 222 C512 89 424 7 313 7 C182 7 91 123 81 285 C127 363 210 429 315 429 L315 429 Z M315 448 C212 448 131 390 82 316 L80 316 C84 497 173 693 368 693 C440 693 487 666 487 666 L496 683 C496 683 445 712 368 712 C152 712 60 492 60 317 C60 127 161 -12 313 -12 C435 -12 533 77 533 222 C533 354 442 448 315 448 L315 448 Z " />
<glyph glyph-name="seven" unicode="7" horiz-adv-x="457" d="M437 700 L22 700 L22 681 L417 681 L417 679 L104 0 L127 0 L437 675 L437 700 Z " />
<glyph glyph-name="eight" unicode="8" horiz-adv-x="557" d="M489 166 C489 281 399 320 307 358 L307 360 C393 392 469 432 469 541 C469 657 391 712 283 712 C178 712 89 648 89 541 C89 438 164 398 247 363 L247 361 C152 326 65 286 65 166 C65 38 177 -12 283 -12 C385 -12 489 50 489 166 L489 166 Z M468 166 C468 63 375 7 283 7 C187 7 86 52 86 166 C86 281 177 317 272 352 C377 311 468 275 468 166 L468 166 Z M110 541 C110 636 189 693 283 693 C380 693 448 644 448 541 C448 437 368 401 281 369 C194 403 110 438 110 541 L110 541 Z " />
<glyph glyph-name="nine" unicode="9" horiz-adv-x="582" d="M267 271 C152 271 70 357 70 478 C70 611 158 693 269 693 C400 693 491 577 501 415 C455 337 372 271 267 271 L267 271 Z M267 252 C370 252 451 310 500 384 L502 384 C498 203 409 7 214 7 C142 7 95 34 95 34 L86 17 C86 17 137 -12 214 -12 C430 -12 522 208 522 383 C522 573 421 712 269 712 C147 712 49 623 49 478 C49 346 140 252 267 252 L267 252 Z " />
<glyph glyph-name="colon" unicode="&#x3a;" horiz-adv-x="172" d="M76 0 L96 0 L96 85 L76 85 L76 0 Z M76 415 L96 415 L96 500 L76 500 L76 415 Z " />
<glyph glyph-name="semicolon" unicode="&#x3b;" horiz-adv-x="238" d="M111 415 L132 415 L132 500 L111 500 L111 415 Z M125 95 L147 95 L73 -140 L52 -140 L125 95 Z " />
<glyph glyph-name="less" unicode="&#x3c;" horiz-adv-x="666" d="M585 87 L65 323 L65 325 L585 560 L585 582 L40 335 L40 313 L585 65 L585 87 Z " />
<glyph glyph-name="equal" unicode="&#x3d;" horiz-adv-x="661" d="M603 235 L603 253 L58 253 L58 235 L603 235 Z M603 395 L603 413 L58 413 L58 395 L603 395 Z " />
<glyph glyph-name="greater" unicode="&#x3e;" horiz-adv-x="666" d="M626 313 L626 335 L81 582 L81 560 L601 325 L601 323 L81 87 L81 65 L626 313 Z " />
<glyph glyph-name="question" unicode="&#x3f;" horiz-adv-x="454" d="M228 0 L228 85 L208 85 L208 0 L228 0 Z M65 552 C82 639 143 693 227 693 C312 693 379 641 379 551 C379 483 342 446 302 412 C237 359 208 324 208 237 L208 190 L228 190 L228 237 C228 316 255 348 315 397 C360 435 400 472 400 551 C400 655 323 712 227 712 C133 712 65 653 46 556 L65 552 Z " />
<glyph glyph-name="at" unicode="&#x40;" horiz-adv-x="823" d="M429 521 C478 521 514 485 525 456 C513 386 501 316 489 246 C475 220 435 181 375 181 C302 181 255 240 255 322 C255 422 321 521 429 521 L429 521 Z M724 118 C652 48 560 7 430 7 C222 7 79 139 79 347 C79 542 217 693 422 693 C608 693 744 615 744 398 C744 269 650 181 575 181 C530 181 509 211 509 238 L557 525 L537 525 L530 481 L528 481 C513 510 476 540 429 540 C308 540 234 432 234 322 C234 229 289 162 377 162 C433 162 472 193 492 220 L494 220 C498 194 522 162 575 162 C657 162 765 257 765 398 C765 629 620 712 422 712 C204 712 58 553 58 347 C58 127 209 -12 430 -12 C566 -12 662 31 738 104 L724 118 Z " />
<glyph glyph-name="A" unicode="A" horiz-adv-x="659" d="M331 674 L522 226 L136 226 L329 674 L331 674 Z M128 208 L530 208 L619 0 L642 0 L342 700 L319 700 L16 0 L39 0 L128 208 Z " />
<glyph glyph-name="B" unicode="B" horiz-adv-x="633" d="M379 373 C460 386 534 433 534 532 C534 654 423 700 289 700 L108 700 L108 0 L302 0 C451 0 582 52 582 186 C582 294 508 358 379 371 L379 373 Z M128 361 L319 361 C471 361 561 301 561 186 C561 66 440 19 302 19 L128 19 L128 361 Z M128 681 L289 681 C412 681 513 640 513 532 C513 416 406 379 317 379 L128 379 L128 681 Z " />
<glyph glyph-name="C" unicode="C" horiz-adv-x="699" d="M654 126 C611 62 528 7 412 7 C216 7 74 152 74 350 C74 548 219 693 412 693 C507 693 597 654 641 592 L657 603 C610 670 513 712 412 712 C207 712 53 559 53 350 C53 141 204 -12 412 -12 C536 -12 624 47 670 116 L654 126 Z " />
<glyph glyph-name="D" unicode="D" horiz-adv-x="763" d="M108 0 L341 0 C516 0 709 117 709 351 C709 584 516 700 341 700 L108 700 L108 0 Z M128 681 L341 681 C506 681 688 571 688 351 C688 130 506 19 341 19 L128 19 L128 681 Z " />
<glyph glyph-name="E" unicode="E" horiz-adv-x="595" d="M128 19 L128 355 L518 355 L518 373 L128 373 L128 681 L542 681 L542 700 L108 700 L108 0 L554 0 L554 19 L128 19 Z " />
<glyph glyph-name="F" unicode="F" horiz-adv-x="561" d="M128 681 L530 681 L530 700 L108 700 L108 0 L128 0 L128 353 L505 353 L505 371 L128 371 L128 681 Z " />
<glyph glyph-name="G" unicode="G" horiz-adv-x="737" d="M661 620 C603 677 521 712 412 712 C207 712 53 559 53 350 C53 141 204 -12 412 -12 C501 -12 587 2 669 31 L669 349 L649 349 L649 45 C572 19 494 7 412 7 C216 7 74 152 74 350 C74 548 219 693 412 693 C515 693 592 660 647 606 L661 620 Z " />
<glyph glyph-name="H" unicode="H" horiz-adv-x="740" d="M128 0 L128 354 L612 354 L612 0 L632 0 L632 700 L612 700 L612 372 L128 372 L128 700 L108 700 L108 0 L128 0 Z " />
<glyph glyph-name="I" unicode="I" horiz-adv-x="236" d="M128 0 L128 700 L108 700 L108 0 L128 0 Z " />
<glyph glyph-name="J" unicode="J" horiz-adv-x="492" d="M21 129 C38 47 107 -12 208 -12 C360 -12 393 116 393 206 L393 700 L373 700 L373 206 C373 124 343 7 208 7 C117 7 55 60 40 133 L21 129 Z " />
<glyph glyph-name="K" unicode="K" horiz-adv-x="589" d="M128 0 L128 262 L275 416 L560 0 L583 0 L290 430 L549 700 L522 700 L130 291 L128 291 L128 700 L108 700 L108 0 L128 0 Z " />
<glyph glyph-name="L" unicode="L" horiz-adv-x="523" d="M108 0 L506 0 L506 19 L128 19 L128 700 L108 700 L108 0 Z " />
<glyph glyph-name="M" unicode="M" horiz-adv-x="827" d="M699 0 L719 0 L719 700 L695 700 L415 28 L413 28 L133 700 L108 700 L108 0 L128 0 L128 656 L130 656 L403 0 L426 0 L697 656 L699 656 L699 0 Z " />
<glyph glyph-name="N" unicode="N" horiz-adv-x="723" d="M592 28 L135 700 L108 700 L108 0 L128 0 L128 672 L130 672 L588 0 L615 0 L615 700 L594 700 L594 28 L592 28 Z " />
<glyph glyph-name="O" unicode="O" horiz-adv-x="822" d="M770 350 C770 559 616 712 411 712 C206 712 52 559 52 350 C52 141 206 -12 411 -12 C616 -12 770 141 770 350 L770 350 Z M749 350 C749 152 604 7 411 7 C218 7 73 152 73 350 C73 548 218 693 411 693 C604 693 749 548 749 350 L749 350 Z " />
<glyph glyph-name="P" unicode="P" horiz-adv-x="568" d="M284 681 C427 681 511 632 511 526 C511 423 432 369 284 369 L128 369 L128 681 L284 681 Z M128 0 L128 350 L284 350 C445 350 532 411 532 526 C532 645 440 700 284 700 L108 700 L108 0 L128 0 Z " />
<glyph glyph-name="Q" unicode="Q" horiz-adv-x="823" d="M403 -12 C439 -139 523 -217 633 -217 L633 -199 C534 -199 459 -127 424 -11 C623 -6 771 145 771 350 C771 559 617 712 412 712 C207 712 53 559 53 350 C53 144 202 -8 403 -12 L403 -12 Z M750 350 C750 152 605 7 412 7 C219 7 74 152 74 350 C74 548 219 693 412 693 C605 693 750 548 750 350 L750 350 Z " />
<glyph glyph-name="R" unicode="R" horiz-adv-x="612" d="M561 0 L584 0 L373 357 C484 374 543 432 543 527 C543 646 451 700 295 700 L108 700 L108 0 L128 0 L128 352 L295 352 C315 352 334 353 351 355 L561 0 Z M128 681 L295 681 C438 681 522 632 522 527 C522 424 443 371 295 371 L128 371 L128 681 Z " />
<glyph glyph-name="S" unicode="S" horiz-adv-x="527" d="M464 644 C464 644 399 712 278 712 C149 712 60 636 60 549 C60 443 163 394 261 347 C358 300 459 253 459 149 C459 77 387 7 268 7 C135 7 61 91 61 91 L47 78 C47 78 126 -12 268 -12 C399 -12 480 68 480 149 C480 267 375 314 271 365 C175 411 81 453 81 549 C81 626 161 693 278 693 C391 693 450 630 450 630 L464 644 Z " />
<glyph glyph-name="T" unicode="T" horiz-adv-x="572" d="M16 681 L276 681 L276 0 L296 0 L296 681 L556 681 L556 700 L16 700 L16 681 Z " />
<glyph glyph-name="U" unicode="U" horiz-adv-x="714" d="M97 700 L97 265 C97 149 149 -12 357 -12 C565 -12 617 149 617 265 L617 700 L597 700 L597 265 C597 157 549 7 357 7 C165 7 117 157 117 265 L117 700 L97 700 Z " />
<glyph glyph-name="V" unicode="V" horiz-adv-x="621" d="M36 700 L297 0 L324 0 L586 700 L564 700 L312 24 L310 24 L58 700 L36 700 Z " />
<glyph glyph-name="W" unicode="W" horiz-adv-x="928" d="M244 0 L271 0 L464 670 L466 670 L659 0 L686 0 L885 700 L863 700 L673 30 L671 30 L479 700 L452 700 L258 29 L256 29 L65 700 L43 700 L244 0 Z " />
<glyph glyph-name="X" unicode="X" horiz-adv-x="564" d="M529 0 L552 0 L295 366 L529 700 L506 700 L283 383 L281 383 L59 700 L35 700 L269 368 L13 0 L37 0 L280 351 L282 351 L529 0 Z " />
<glyph glyph-name="Y" unicode="Y" horiz-adv-x="626" d="M323 0 L323 300 L587 700 L564 700 L314 319 L312 319 L62 700 L39 700 L303 300 L303 0 L323 0 Z " />
<glyph glyph-name="Z" unicode="Z" horiz-adv-x="554" d="M35 681 L494 681 L494 679 L24 17 L24 0 L528 0 L528 19 L51 19 L51 21 L522 683 L522 700 L35 700 L35 681 Z " />
<glyph glyph-name="bracketleft" unicode="&#x5b;" horiz-adv-x="275" d="M126 705 L238 705 L238 724 L106 724 L106 -154 L238 -154 L238 -135 L126 -135 L126 705 Z " />
<glyph glyph-name="backslash" unicode="&#x5c;" horiz-adv-x="400" d="M62 708 L39 708 L338 -8 L361 -8 L62 708 Z " />
<glyph glyph-name="bracketright" unicode="&#x5d;" horiz-adv-x="275" d="M37 -135 L37 -154 L169 -154 L169 724 L37 724 L37 705 L149 705 L149 -135 L37 -135 Z " />
<glyph glyph-name="asciicircum" unicode="&#x5e;" horiz-adv-x="577" d="M73 272 L288 678 L290 678 L503 272 L527 272 L300 700 L277 700 L50 272 L73 272 Z " />
<glyph glyph-name="underscore" unicode="&#x5f;" horiz-adv-x="494" d="M0 -108 L494 -108 L494 -90 L0 -90 L0 -108 Z " />
<glyph glyph-name="grave" unicode="&#x60;" horiz-adv-x="241" d="M191 602 L76 744 L50 744 L167 602 L191 602 Z " />
<glyph glyph-name="a" unicode="a" horiz-adv-x="550" d="M233 7 C152 7 59 35 59 127 C59 249 242 266 439 267 L439 107 C388 53 318 7 233 7 L233 7 Z M521 20 C521 20 516 19 511 19 C484 19 459 38 459 89 L459 331 C459 452 372 512 265 512 C180 512 109 481 69 441 L83 427 C120 465 186 493 265 493 C361 493 439 440 439 331 L439 286 C232 284 39 265 39 127 C39 21 142 -12 233 -12 C318 -12 387 31 441 84 L443 84 C445 20 478 0 511 0 C516 0 521 0 524 1 L521 20 Z " />
<glyph glyph-name="b" unicode="b" horiz-adv-x="592" d="M87 0 L107 0 L107 76 L109 76 C150 23 212 -12 290 -12 C431 -12 546 100 546 250 C546 400 431 512 290 512 C213 512 151 478 109 424 L107 424 L107 730 L87 730 L87 0 Z M290 493 C420 493 526 389 526 250 C526 111 420 7 290 7 C215 7 146 42 107 106 L107 393 C146 456 214 493 290 493 L290 493 Z " />
<glyph glyph-name="c" unicode="c" horiz-adv-x="536" d="M499 426 C463 478 400 512 312 512 C166 512 47 414 47 250 C47 95 156 -12 318 -12 C439 -12 503 74 503 74 L488 85 C488 85 430 7 318 7 C168 7 67 106 67 250 C67 402 177 493 312 493 C393 493 451 462 483 415 L499 426 Z " />
<glyph glyph-name="d" unicode="d" horiz-adv-x="599" d="M489 79 C490 20 524 0 557 0 C562 0 567 0 570 1 C569 8 568 13 567 20 C567 20 562 19 557 19 C530 19 505 38 505 88 L505 730 L485 730 L485 424 L483 424 C441 478 379 512 302 512 C161 512 46 400 46 250 C46 100 161 -12 302 -12 C382 -12 445 24 487 79 L489 79 Z M302 493 C378 493 446 456 485 393 L485 106 C446 42 377 7 302 7 C172 7 66 111 66 250 C66 389 172 493 302 493 L302 493 Z " />
<glyph glyph-name="e" unicode="e" horiz-adv-x="579" d="M533 260 C533 260 535 286 535 300 C535 415 460 512 311 512 C165 512 46 414 46 250 C46 95 166 -12 328 -12 C448 -12 525 58 525 58 L513 72 C513 72 441 7 328 7 C179 7 66 103 66 260 L533 260 Z M311 493 C455 493 524 392 513 278 L68 278 C80 413 185 493 311 493 L311 493 Z " />
<glyph glyph-name="f" unicode="f" horiz-adv-x="236" d="M245 730 C234 732 217 734 203 734 C157 734 101 730 101 639 L101 500 L24 500 L24 482 L101 482 L101 0 L121 0 L121 482 L230 482 L230 500 L121 500 L121 639 C121 711 167 715 203 715 C215 715 231 713 241 711 L245 730 Z " />
<glyph glyph-name="g" unicode="g" horiz-adv-x="580" d="M473 500 L473 425 L471 425 C431 478 369 512 296 512 C159 512 47 403 47 256 C47 109 159 0 296 0 C368 0 430 32 471 87 L473 87 L473 15 C470 -133 360 -191 242 -191 C187 -191 135 -178 89 -155 L81 -173 C128 -196 184 -210 242 -210 C370 -210 493 -147 493 15 L493 500 L473 500 Z M296 19 C169 19 66 120 66 256 C66 392 169 493 296 493 C369 493 434 457 473 395 L473 118 C441 62 375 19 296 19 L296 19 Z " />
<glyph glyph-name="h" unicode="h" horiz-adv-x="608" d="M107 0 L107 378 C128 436 207 493 301 493 C441 493 509 419 509 306 L509 0 L529 0 L529 306 C529 430 454 512 301 512 C219 512 142 467 109 413 L107 413 L107 730 L87 730 L87 0 L107 0 Z " />
<glyph glyph-name="i" unicode="i" horiz-adv-x="200" d="M90 615 L110 615 L110 700 L90 700 L90 615 Z M90 0 L110 0 L110 500 L90 500 L90 0 Z " />
<glyph glyph-name="j" unicode="j" horiz-adv-x="200" d="M-21 -204 C62 -204 110 -196 110 -96 L110 500 L90 500 L90 -96 C90 -178 50 -185 -21 -185 L-21 -204 Z M90 615 L110 615 L110 700 L90 700 L90 615 Z " />
<glyph glyph-name="k" unicode="k" horiz-adv-x="487" d="M107 730 L87 730 L87 0 L107 0 L107 185 L224 288 L454 0 L477 0 L238 300 L464 500 L435 500 L109 211 L107 211 L107 730 Z " />
<glyph glyph-name="l" unicode="l" horiz-adv-x="206" d="M89 87 C89 22 122 0 156 0 C162 0 166 0 169 1 L166 20 C166 20 162 19 156 19 C132 19 109 37 109 87 L109 730 L89 730 L89 87 Z " />
<glyph glyph-name="m" unicode="m" horiz-adv-x="884" d="M107 0 L107 385 C132 448 202 493 269 493 C364 493 433 444 433 370 L433 0 L453 0 L453 381 C477 451 548 493 610 493 C726 493 785 419 785 306 L785 0 L805 0 L805 306 C805 428 738 512 613 512 C544 512 473 467 446 403 L444 403 C427 470 361 512 269 512 C204 512 138 471 109 416 L107 416 L107 500 L87 500 L87 0 L107 0 Z " />
<glyph glyph-name="n" unicode="n" horiz-adv-x="608" d="M107 0 L107 378 C128 436 207 493 301 493 C441 493 509 419 509 306 L509 0 L529 0 L529 306 C529 430 454 512 301 512 C219 512 142 467 109 413 L107 413 L107 500 L87 500 L87 0 L107 0 Z " />
<glyph glyph-name="o" unicode="o" horiz-adv-x="624" d="M577 250 C577 400 467 512 311 512 C157 512 46 400 46 250 C46 100 157 -12 311 -12 C467 -12 577 100 577 250 L577 250 Z M557 250 C557 111 455 7 311 7 C169 7 66 111 66 250 C66 389 169 493 311 493 C455 493 557 389 557 250 L557 250 Z " />
<glyph glyph-name="p" unicode="p" horiz-adv-x="597" d="M108 421 C107 480 73 500 40 500 C35 500 30 500 27 499 L30 480 C30 480 35 481 40 481 C67 481 92 462 92 412 L92 -200 L112 -200 L112 76 L114 76 C156 22 218 -12 295 -12 C436 -12 551 100 551 250 C551 400 436 512 295 512 C215 512 152 476 110 421 L108 421 Z M295 7 C219 7 151 44 112 107 L112 394 C151 458 220 493 295 493 C425 493 530 389 530 250 C530 111 425 7 295 7 L295 7 Z " />
<glyph glyph-name="q" unicode="q" horiz-adv-x="592" d="M505 500 L485 500 L485 424 L483 424 C442 477 380 512 302 512 C161 512 46 400 46 250 C46 100 161 -12 302 -12 C379 -12 441 22 483 76 L485 76 L485 -200 L505 -200 L505 500 Z M302 7 C172 7 66 111 66 250 C66 389 172 493 302 493 C377 493 446 458 485 394 L485 107 C446 44 378 7 302 7 L302 7 Z " />
<glyph glyph-name="r" unicode="r" horiz-adv-x="323" d="M107 0 L107 374 C120 418 186 485 266 485 C284 485 299 484 314 479 L318 497 C303 503 286 504 266 504 C193 504 132 449 109 408 L107 408 L107 500 L87 500 L87 0 L107 0 Z " />
<glyph glyph-name="s" unicode="s" horiz-adv-x="444" d="M387 457 C387 457 335 512 235 512 C133 512 54 459 54 384 C54 297 136 271 221 245 C300 220 381 195 381 113 C381 55 326 7 227 7 C117 7 57 74 57 74 L43 61 C43 61 108 -12 227 -12 C340 -12 401 45 401 113 C401 207 311 236 227 263 C152 286 75 313 75 384 C75 448 144 493 235 493 C326 493 373 444 373 444 L387 457 Z " />
<glyph glyph-name="t" unicode="t" horiz-adv-x="260" d="M108 482 L108 91 C108 0 164 -4 210 -4 C224 -4 241 -2 252 0 L248 19 C238 17 222 15 210 15 C174 15 128 19 128 91 L128 482 L240 482 L240 500 L128 500 L128 676 L108 676 L108 500 L9 500 L9 482 L108 482 Z " />
<glyph glyph-name="u" unicode="u" horiz-adv-x="607" d="M500 500 L500 122 C479 64 400 7 306 7 C166 7 98 81 98 194 L98 500 L78 500 L78 194 C78 70 153 -12 306 -12 C388 -12 465 33 498 87 L500 87 L500 0 L520 0 L520 500 L500 500 Z " />
<glyph glyph-name="v" unicode="v" horiz-adv-x="532" d="M266 24 L264 24 L52 500 L29 500 L254 0 L276 0 L504 500 L482 500 L266 24 Z " />
<glyph glyph-name="w" unicode="w" horiz-adv-x="789" d="M579 30 L577 30 L404 500 L382 500 L212 31 L210 31 L58 500 L37 500 L200 0 L222 0 L392 472 L394 472 L568 0 L590 0 L751 500 L730 500 L579 30 Z " />
<glyph glyph-name="x" unicode="x" horiz-adv-x="454" d="M411 0 L435 0 L239 259 L421 500 L397 500 L228 274 L226 274 L56 500 L33 500 L213 262 L19 0 L42 0 L224 247 L226 247 L411 0 Z " />
<glyph glyph-name="y" unicode="y" horiz-adv-x="531" d="M29 500 L254 3 L216 -79 C185 -145 155 -186 87 -186 C68 -186 48 -184 30 -180 L26 -198 C45 -202 66 -204 87 -204 C170 -204 201 -160 235 -87 L502 500 L480 500 L266 28 L264 28 L52 500 L29 500 Z " />
<glyph glyph-name="z" unicode="z" horiz-adv-x="459" d="M53 20 L420 485 L420 500 L40 500 L40 482 L392 482 L392 480 L25 15 L25 0 L431 0 L431 18 L53 18 L53 20 Z " />
<glyph glyph-name="braceleft" unicode="&#x7b;" horiz-adv-x="262" d="M213 -135 C163 -135 117 -107 117 -20 L117 168 C117 229 103 271 75 284 L75 286 C103 298 117 340 117 401 L117 589 C117 676 163 705 213 705 L228 705 L228 724 L213 724 C152 724 97 690 97 589 L97 401 C97 331 80 294 44 294 L44 276 C80 276 97 239 97 168 L97 -20 C97 -121 152 -154 213 -154 L228 -154 L228 -135 L213 -135 Z " />
<glyph glyph-name="bar" unicode="&#x7c;" horiz-adv-x="228" d="M104 -247 L124 -247 L124 742 L104 742 L104 -247 Z " />
<glyph glyph-name="braceright" unicode="&#x7d;" horiz-adv-x="262" d="M34 -135 L34 -154 L49 -154 C109 -154 165 -121 165 -20 L165 168 C165 239 181 276 218 276 L218 294 C181 294 165 331 165 401 L165 589 C165 690 109 724 49 724 L34 724 L34 705 L49 705 C99 705 145 676 145 589 L145 401 C145 340 159 298 187 286 L187 284 C159 271 145 229 145 168 L145 -20 C145 -107 99 -135 49 -135 L34 -135 Z " />
<glyph glyph-name="asciitilde" unicode="&#x7e;" horiz-adv-x="684" d="M351 307 C388 277 436 251 478 251 C548 251 582 311 605 393 L584 393 C564 321 533 270 478 270 C442 270 398 295 364 323 C312 364 261 396 209 396 C140 396 106 334 84 254 L105 254 C124 325 155 377 209 377 C255 377 303 347 351 307 L351 307 Z " />
<glyph glyph-name="nbspace" unicode="&#xa0;" horiz-adv-x="290" d="" />
<glyph glyph-name="exclamdown" unicode="&#xa1;" horiz-adv-x="218" d="M119 -200 L119 310 L99 310 L99 -200 L119 -200 Z M119 415 L119 500 L99 500 L99 415 L119 415 Z " />
<glyph glyph-name="cent" unicode="&#xa2;" horiz-adv-x="573" d="M498 85 C498 85 440 7 328 7 C178 7 77 106 77 250 C77 402 187 493 322 493 C403 493 461 462 493 415 L509 426 C473 478 411 513 317 512 L317 602 L297 602 L297 510 C163 500 57 405 57 250 C57 105 152 3 297 -10 L297 -102 L317 -102 L317 -12 C447 -16 511 72 513 74 L498 85 Z " />
<glyph glyph-name="sterling" unicode="&#xa3;" horiz-adv-x="542" d="M452 675 C421 693 382 712 337 712 C230 712 151 628 150 508 C150 460 149 411 149 363 L60 363 L60 345 L149 345 C146 223 100 60 51 1 L63 -13 C103 9 135 18 175 18 C229 18 287 -12 347 -12 C404 -12 447 3 502 48 L491 63 C439 21 399 7 347 7 C285 9 231 37 175 37 C144 37 114 30 87 19 L86 21 C129 92 166 234 169 345 L377 345 L377 363 L169 363 C169 411 170 460 170 508 C171 617 241 693 337 693 C379 693 415 676 443 659 L452 675 Z " />
<glyph glyph-name="currency" unicode="&#xa4;" horiz-adv-x="707" d="M72 39 L86 25 L185 125 C227 84 284 59 354 59 C423 59 480 83 521 124 L621 26 L635 40 L535 138 C573 182 594 241 594 306 C594 370 572 429 534 473 L629 568 L615 582 L520 487 C479 526 423 550 354 550 C284 550 228 525 186 486 L92 583 L78 569 L173 471 C135 427 114 369 114 306 C114 241 135 183 173 139 L72 39 Z M354 531 C488 531 573 430 573 306 C573 180 488 78 354 78 C220 78 135 180 135 306 C135 430 220 531 354 531 L354 531 Z " />
<glyph glyph-name="yen" unicode="&#xa5;" horiz-adv-x="620" d="M127 287 L301 287 L301 159 L127 159 L127 141 L301 141 L301 0 L321 0 L321 141 L490 141 L490 159 L321 159 L321 287 L490 287 L490 305 L325 305 L585 700 L562 700 L312 319 L310 319 L60 700 L37 700 L297 305 L127 305 L127 287 Z " />
<glyph glyph-name="brokenbar" unicode="&#xa6;" horiz-adv-x="236" d="M108 321 L128 321 L128 667 L108 667 L108 321 Z M108 -173 L128 -173 L128 173 L108 173 L108 -173 Z " />
<glyph glyph-name="section" unicode="&#xa7;" horiz-adv-x="498" d="M427 658 C427 658 372 712 271 712 C165 712 89 651 89 582 C89 524 133 486 186 456 L186 454 C112 436 66 386 66 332 C66 246 149 206 235 167 C318 128 401 88 401 8 C401 -47 341 -104 242 -104 C131 -104 69 -37 69 -37 L55 -51 C55 -51 122 -123 242 -123 C353 -123 422 -57 422 8 C422 71 379 111 323 142 L323 144 C396 162 440 212 440 261 C440 353 352 396 265 436 C187 473 110 509 110 582 C110 640 176 693 271 693 C364 693 413 644 413 644 L427 658 Z M256 419 C334 382 419 341 419 263 C419 216 374 168 300 157 C282 166 264 175 245 183 C165 220 86 258 86 332 C86 383 135 429 211 441 C226 433 241 426 256 419 L256 419 Z " />
<glyph glyph-name="dieresis" unicode="&#xa8;" horiz-adv-x="310" d="M50 615 L70 615 L70 700 L50 700 L50 615 Z M240 615 L260 615 L260 700 L240 700 L240 615 Z " />
<glyph glyph-name="copyright" unicode="&#xa9;" horiz-adv-x="850" d="M424 712 C199 712 58 550 58 351 C58 150 199 -12 424 -12 C651 -12 792 150 792 351 C792 550 651 712 424 712 L424 712 Z M424 693 C638 693 771 540 771 351 C771 160 638 7 424 7 C212 7 79 160 79 351 C79 540 212 693 424 693 L424 693 Z M577 222 C551 185 503 153 436 153 C322 153 240 238 240 353 C240 469 324 554 436 554 C492 554 544 531 570 495 L585 507 C556 547 498 573 436 573 C312 573 219 480 219 353 C219 227 310 134 436 134 C511 134 564 170 593 211 L577 222 Z " />
<glyph glyph-name="ordfeminine" unicode="&#xaa;" horiz-adv-x="402" d="M95 659 C114 679 149 693 190 693 C239 693 279 666 279 611 L279 589 C167 587 64 575 64 496 C64 435 122 419 172 419 C219 419 256 442 282 471 L284 471 C286 438 303 426 329 426 L335 426 L335 444 L329 444 C312 444 299 454 299 481 L299 611 C299 678 250 712 190 712 C143 712 103 695 81 672 L95 659 Z M172 438 C132 438 84 449 84 498 C84 560 178 569 279 571 L279 488 C251 461 215 438 172 438 L172 438 Z " />
<glyph glyph-name="guillemotleft" unicode="&#xab;" horiz-adv-x="481" d="M413 51 L278 256 L414 462 L391 462 L256 256 L390 51 L413 51 Z M218 51 L83 256 L219 462 L196 462 L61 256 L195 51 L218 51 Z " />
<glyph glyph-name="logicalnot" unicode="&#xac;" horiz-adv-x="670" d="M583 409 L70 409 L70 391 L563 391 L563 139 L583 139 L583 409 Z " />
<glyph glyph-name="uni00AD" unicode="&#xad;" horiz-adv-x="352" d="M56 251 L296 251 L296 269 L56 269 L56 251 Z " />
<glyph glyph-name="registered" unicode="&#xae;" horiz-adv-x="850" d="M424 712 C199 712 58 550 58 351 C58 150 199 -12 424 -12 C651 -12 792 150 792 351 C792 550 651 712 424 712 L424 712 Z M424 693 C638 693 771 540 771 351 C771 160 638 7 424 7 C212 7 79 160 79 351 C79 540 212 693 424 693 L424 693 Z M298 141 L318 141 L318 353 C420 353 433 353 444 354 L570 141 L593 141 L465 357 C530 368 565 403 565 460 C565 533 509 566 415 566 L298 566 L298 141 Z M318 547 L414 547 C496 547 544 520 544 460 C544 402 499 371 414 371 L318 371 L318 547 Z " />
<glyph glyph-name="macron" unicode="&#xaf;" horiz-adv-x="367" d="M50 653 L317 653 L317 671 L50 671 L50 653 Z " />
<glyph glyph-name="degree" unicode="&#xb0;" horiz-adv-x="396" d="M336 574 C336 654 278 712 198 712 C119 712 60 654 60 574 C60 495 119 436 198 436 C278 436 336 495 336 574 L336 574 Z M315 574 C315 506 266 455 198 455 C131 455 81 506 81 574 C81 643 131 693 198 693 C266 693 315 643 315 574 L315 574 Z " />
<glyph glyph-name="plusminus" unicode="&#xb1;" horiz-adv-x="729" d="M92 394 L355 394 L355 207 L375 207 L375 394 L637 394 L637 412 L375 412 L375 602 L355 602 L355 412 L92 412 L92 394 Z M92 42 L637 42 L637 60 L92 60 L92 42 Z " />
<glyph glyph-name="twosuperior" unicode="&#xb2;" horiz-adv-x="415" d="M95 317 C95 452 334 483 334 602 C334 657 287 712 205 712 C116 712 78 635 78 635 C84 632 89 629 95 626 C95 626 128 693 205 693 C273 693 313 647 313 602 C313 495 74 462 74 317 L74 287 L335 287 L335 306 L95 306 L95 317 Z " />
<glyph glyph-name="threesuperior" unicode="&#xb3;" horiz-adv-x="400" d="M175 509 L175 490 L206 490 C248 490 314 462 314 394 C314 324 267 294 195 294 C107 294 81 363 79 366 L62 358 C64 353 95 275 195 275 C280 275 334 311 334 394 C334 455 288 490 246 499 L246 501 C284 513 322 546 322 603 C322 658 283 712 198 712 C109 712 80 650 78 646 L94 637 C96 639 119 693 198 693 C269 693 302 649 302 603 C302 541 248 509 206 509 L175 509 Z " />
<glyph glyph-name="acute" unicode="&#xb4;" horiz-adv-x="241" d="M191 744 L165 744 L50 602 L74 602 L191 744 Z " />
<glyph glyph-name="mu" unicode="&#xb5;" horiz-adv-x="651" d="M101 500 L101 -200 L121 -200 L121 108 L123 108 C147 35 215 -12 329 -12 C411 -12 488 33 521 87 L523 87 L523 0 L543 0 L543 500 L523 500 L523 122 C502 64 423 7 329 7 C192 7 123 78 121 187 L121 500 L101 500 Z " />
<glyph glyph-name="paragraph" unicode="&#xb6;" horiz-adv-x="595" d="M262 700 C123 701 36 625 36 496 C36 380 123 312 262 312 L262 -125 L282 -125 L282 681 L456 681 L456 -125 L476 -125 L476 700 L262 700 Z " />
<glyph glyph-name="periodcentered" unicode="&#xb7;" horiz-adv-x="140" d="M60 292 L80 292 L80 377 L60 377 L60 292 Z " />
<glyph glyph-name="cedilla" unicode="&#xb8;" horiz-adv-x="302" d="M148 0 L82 -98 L94 -110 C111 -99 137 -92 164 -92 C198 -92 232 -104 232 -137 C232 -179 187 -193 145 -193 C111 -193 75 -185 60 -175 L50 -190 C69 -202 108 -212 145 -212 C197 -212 252 -193 252 -138 C252 -92 208 -76 168 -76 C146 -76 126 -81 111 -87 L109 -86 L171 0 L148 0 Z " />
<glyph glyph-name="onesuperior" unicode="&#xb9;" horiz-adv-x="233" d="M53 618 L126 678 L128 678 L128 287 L148 287 L148 700 L122 700 L40 633 L53 618 Z " />
<glyph glyph-name="ordmasculine" unicode="&#xba;" horiz-adv-x="417" d="M357 565 C357 649 295 712 208 712 C122 712 60 649 60 565 C60 482 122 419 208 419 C295 419 357 482 357 565 L357 565 Z M336 565 C336 493 283 438 208 438 C134 438 81 493 81 565 C81 638 134 693 208 693 C283 693 336 638 336 565 L336 565 Z " />
<glyph glyph-name="guillemotright" unicode="&#xbb;" horiz-adv-x="481" d="M420 256 L285 462 L262 462 L398 256 L263 51 L286 51 L420 256 Z M225 256 L90 462 L67 462 L203 256 L68 51 L91 51 L225 256 Z " />
<glyph glyph-name="onequarter" unicode="&#xbc;" horiz-adv-x="750" d="M407 111 L617 111 L617 0 L638 0 L638 111 L710 111 L710 129 L638 129 L638 422 L611 422 L407 135 L407 111 Z M617 129 L429 129 L429 131 L615 394 L617 394 L617 129 Z M564 726 L113 -17 L135 -17 L586 726 L564 726 Z M50 626 L123 686 L125 686 L125 286 L145 286 L145 708 L119 708 L37 641 L50 626 Z " />
<glyph glyph-name="onehalf" unicode="&#xbd;" horiz-adv-x="786" d="M563 726 L112 -17 L134 -17 L585 726 L563 726 Z M467 0 L736 0 L736 19 L488 19 L488 30 C488 167 733 197 733 318 C733 374 686 429 602 429 C511 429 471 351 471 351 L489 342 C489 342 523 410 602 410 C672 410 713 364 713 318 C713 212 467 175 467 30 L467 0 Z M49 626 L122 686 L124 686 L124 286 L144 286 L144 708 L118 708 L36 641 L49 626 Z " />
<glyph glyph-name="threequarters" unicode="&#xbe;" horiz-adv-x="829" d="M487 111 L696 111 L696 0 L717 0 L717 111 L790 111 L790 129 L717 129 L717 422 L690 422 L487 135 L487 111 Z M696 129 L508 129 L508 131 L694 394 L696 394 L696 129 Z M644 726 L193 -17 L215 -17 L666 726 L644 726 Z M160 517 L160 499 L190 499 C232 499 298 468 298 403 C298 334 252 303 180 303 C92 303 66 372 64 375 L47 367 C49 362 80 284 180 284 C265 284 318 322 318 403 C318 463 271 497 229 507 L229 509 C268 521 307 556 307 611 C307 664 268 720 182 720 C94 720 65 658 63 654 L79 645 C81 647 104 701 182 701 C254 701 286 655 286 611 C286 551 233 517 191 517 L160 517 Z " />
<glyph glyph-name="questiondown" unicode="&#xbf;" horiz-adv-x="445" d="M221 500 L221 415 L241 415 L241 500 L221 500 Z M384 -50 C368 -137 306 -191 222 -191 C137 -191 70 -139 70 -49 C70 19 107 56 148 90 C212 143 241 178 241 265 L241 310 L221 310 L221 265 C221 186 194 154 134 105 C89 67 49 30 49 -49 C49 -153 126 -210 222 -210 C316 -210 384 -151 403 -54 L384 -50 Z " />
<glyph glyph-name="Agrave" unicode="&#xc0;" horiz-adv-x="659" d="M342 700 L319 700 L16 0 L39 0 L128 208 L530 208 L619 0 L642 0 L342 700 Z M522 226 L136 226 L329 674 L331 674 L522 226 Z M200 900 L317 758 L341 758 L226 900 L200 900 Z " />
<glyph glyph-name="Aacute" unicode="&#xc1;" horiz-adv-x="659" d="M342 700 L319 700 L16 0 L39 0 L128 208 L530 208 L619 0 L642 0 L342 700 Z M522 226 L136 226 L329 674 L331 674 L522 226 Z M432 900 L317 758 L341 758 L458 900 L432 900 Z " />
<glyph glyph-name="Acircumflex" unicode="&#xc2;" horiz-adv-x="659" d="M342 700 L319 700 L16 0 L39 0 L128 208 L530 208 L619 0 L642 0 L342 700 Z M522 226 L136 226 L329 674 L331 674 L522 226 Z M450 758 L340 901 L317 901 L207 758 L230 758 L327 884 L329 884 L426 758 L450 758 Z " />
<glyph glyph-name="Atilde" unicode="&#xc3;" horiz-adv-x="659" d="M342 700 L319 700 L16 0 L39 0 L128 208 L530 208 L619 0 L642 0 L342 700 Z M522 226 L136 226 L329 674 L331 674 L522 226 Z M192 778 C203 818 222 847 251 847 C279 847 307 829 334 810 C358 794 386 779 411 779 C452 779 476 813 489 865 L470 865 C459 826 440 798 411 798 C390 798 364 812 344 826 C313 848 282 867 250 867 C211 867 186 830 173 778 L192 778 Z " />
<glyph glyph-name="Adieresis" unicode="&#xc4;" horiz-adv-x="659" d="M342 700 L319 700 L16 0 L39 0 L128 208 L530 208 L619 0 L642 0 L342 700 Z M522 226 L136 226 L329 674 L331 674 L522 226 Z M225 800 L246 800 L246 885 L225 885 L225 800 Z M415 800 L436 800 L436 885 L415 885 L415 800 Z " />
<glyph glyph-name="Aring" unicode="&#xc5;" horiz-adv-x="659" d="M342 700 L319 700 L16 0 L39 0 L128 208 L530 208 L619 0 L642 0 L342 700 Z M522 226 L136 226 L329 674 L331 674 L522 226 Z M425 842 C425 895 381 936 330 936 C278 936 235 895 235 842 C235 788 278 748 330 748 C381 748 425 788 425 842 L425 842 Z M407 842 C407 799 372 767 330 767 C288 767 254 799 254 842 C254 884 288 917 330 917 C372 917 407 884 407 842 L407 842 Z " />
<glyph glyph-name="AE" unicode="&#xc6;" horiz-adv-x="944" d="M6 0 L30 0 L167 210 L484 210 L484 0 L903 0 L903 19 L505 19 L505 355 L869 355 L869 373 L505 373 L505 681 L892 681 L892 700 L462 700 L6 0 Z M473 681 L484 681 L484 228 L179 228 L473 681 Z " />
<glyph glyph-name="Ccedilla" unicode="&#xc7;" horiz-adv-x="699" d="M654 126 C611 62 528 7 412 7 C216 7 74 152 74 350 C74 548 219 693 412 693 C507 693 597 654 641 592 L657 603 C610 670 513 712 412 712 C207 712 53 559 53 350 C53 151 189 3 381 -10 L322 -98 L334 -110 C351 -99 377 -92 404 -92 C438 -92 472 -104 472 -137 C472 -179 427 -193 385 -193 C351 -193 315 -185 300 -175 L290 -190 C309 -202 348 -212 385 -212 C437 -212 492 -193 492 -138 C492 -92 448 -76 408 -76 C386 -76 366 -81 351 -87 L349 -86 L402 -12 C522 -13 613 33 670 116 L654 126 Z " />
<glyph glyph-name="Egrave" unicode="&#xc8;" horiz-adv-x="595" d="M128 19 L128 355 L518 355 L518 373 L128 373 L128 681 L542 681 L542 700 L108 700 L108 0 L554 0 L554 19 L128 19 Z M342 758 L366 758 L251 900 L225 900 L342 758 Z " />
<glyph glyph-name="Eacute" unicode="&#xc9;" horiz-adv-x="595" d="M128 19 L128 355 L518 355 L518 373 L128 373 L128 681 L542 681 L542 700 L108 700 L108 0 L554 0 L554 19 L128 19 Z M436 900 L411 900 L295 758 L319 758 L436 900 Z " />
<glyph glyph-name="Ecircumflex" unicode="&#xca;" horiz-adv-x="595" d="M128 19 L128 355 L518 355 L518 373 L128 373 L128 681 L542 681 L542 700 L108 700 L108 0 L554 0 L554 19 L128 19 Z M206 758 L230 758 L327 884 L329 884 L426 758 L450 758 L340 901 L316 901 L206 758 Z " />
<glyph glyph-name="Edieresis" unicode="&#xcb;" horiz-adv-x="595" d="M128 19 L128 355 L518 355 L518 373 L128 373 L128 681 L542 681 L542 700 L108 700 L108 0 L554 0 L554 19 L128 19 Z M223 800 L243 800 L243 885 L223 885 L223 800 Z M413 800 L433 800 L433 885 L413 885 L413 800 Z " />
<glyph glyph-name="Igrave" unicode="&#xcc;" horiz-adv-x="236" d="M108 0 L128 0 L128 700 L108 700 L108 0 Z M105 758 L129 758 L14 900 L-12 900 L105 758 Z " />
<glyph glyph-name="Iacute" unicode="&#xcd;" horiz-adv-x="236" d="M108 0 L128 0 L128 700 L108 700 L108 0 Z M107 758 L131 758 L248 900 L222 900 L107 758 Z " />
<glyph glyph-name="Icircumflex" unicode="&#xce;" horiz-adv-x="236" d="M108 0 L128 0 L128 700 L108 700 L108 0 Z M-4 758 L20 758 L117 884 L119 884 L216 758 L240 758 L129 901 L106 901 L-4 758 Z " />
<glyph glyph-name="Idieresis" unicode="&#xcf;" horiz-adv-x="235" d="M108 0 L128 0 L128 700 L108 700 L108 0 Z M12 800 L32 800 L32 885 L12 885 L12 800 Z M202 800 L222 800 L222 885 L202 885 L202 800 Z " />
<glyph glyph-name="Eth" unicode="&#xd0;" horiz-adv-x="770" d="M43 360 L115 360 L115 0 L348 0 C523 0 716 117 716 351 C716 584 523 700 348 700 L115 700 L115 378 L43 378 L43 360 Z M135 681 L348 681 C513 681 695 571 695 351 C695 130 513 19 348 19 L135 19 L135 360 L441 360 L441 378 L135 378 L135 681 Z " />
<glyph glyph-name="Ntilde" unicode="&#xd1;" horiz-adv-x="723" d="M225 778 C236 818 254 847 283 847 C312 847 339 829 367 810 C391 794 418 779 444 779 C484 779 509 813 522 865 L502 865 C492 826 473 798 443 798 C423 798 397 812 377 826 C346 848 315 867 283 867 C244 867 218 830 205 778 L225 778 Z M135 700 L108 700 L108 0 L129 0 L129 672 L131 672 L588 0 L615 0 L615 700 L594 700 L594 28 L592 28 L135 700 Z " />
<glyph glyph-name="Ograve" unicode="&#xd2;" horiz-adv-x="822" d="M770 350 C770 559 616 712 411 712 C206 712 52 559 52 350 C52 141 206 -12 411 -12 C616 -12 770 141 770 350 L770 350 Z M749 350 C749 152 604 7 411 7 C218 7 73 152 73 350 C73 548 218 693 411 693 C604 693 749 548 749 350 L749 350 Z M438 758 L462 758 L347 900 L321 900 L438 758 Z " />
<glyph glyph-name="Oacute" unicode="&#xd3;" horiz-adv-x="822" d="M770 350 C770 559 616 712 411 712 C206 712 52 559 52 350 C52 141 206 -12 411 -12 C616 -12 770 141 770 350 L770 350 Z M749 350 C749 152 604 7 411 7 C218 7 73 152 73 350 C73 548 218 693 411 693 C604 693 749 548 749 350 L749 350 Z M518 900 L492 900 L377 758 L401 758 L518 900 Z " />
<glyph glyph-name="Ocircumflex" unicode="&#xd4;" horiz-adv-x="822" d="M770 350 C770 559 616 712 411 712 C206 712 52 559 52 350 C52 141 206 -12 411 -12 C616 -12 770 141 770 350 L770 350 Z M749 350 C749 152 604 7 411 7 C218 7 73 152 73 350 C73 548 218 693 411 693 C604 693 749 548 749 350 L749 350 Z M289 758 L313 758 L410 884 L412 884 L509 758 L533 758 L423 901 L399 901 L289 758 Z " />
<glyph glyph-name="Otilde" unicode="&#xd5;" horiz-adv-x="822" d="M770 350 C770 559 616 712 411 712 C206 712 52 559 52 350 C52 141 206 -12 411 -12 C616 -12 770 141 770 350 L770 350 Z M749 350 C749 152 604 7 411 7 C218 7 73 152 73 350 C73 548 218 693 411 693 C604 693 749 548 749 350 L749 350 Z M275 778 C285 818 304 847 333 847 C361 847 389 829 417 810 C440 794 468 779 493 779 C534 779 559 813 572 865 L552 865 C541 826 523 798 493 798 C472 798 447 812 426 826 C396 848 365 867 333 867 C293 867 268 830 255 778 L275 778 Z " />
<glyph glyph-name="Odieresis" unicode="&#xd6;" horiz-adv-x="822" d="M770 350 C770 559 616 712 411 712 C206 712 52 559 52 350 C52 141 206 -12 411 -12 C616 -12 770 141 770 350 L770 350 Z M749 350 C749 152 604 7 411 7 C218 7 73 152 73 350 C73 548 218 693 411 693 C604 693 749 548 749 350 L749 350 Z M306 800 L326 800 L326 885 L306 885 L306 800 Z M496 800 L516 800 L516 885 L496 885 L496 800 Z " />
<glyph glyph-name="multiply" unicode="&#xd7;" horiz-adv-x="534" d="M451 124 L466 138 L282 323 L467 509 L452 523 L267 337 L82 525 L67 511 L253 323 L68 137 L83 123 L267 309 L451 124 Z " />
<glyph glyph-name="Oslash" unicode="&#xd8;" horiz-adv-x="818" d="M80 13 L96 -1 L167 76 C230 21 314 -12 409 -12 C614 -12 768 141 768 350 C768 455 729 545 664 610 L739 689 L723 703 L650 624 C587 679 504 712 409 712 C204 712 50 559 50 350 C50 245 88 154 153 90 L80 13 Z M747 350 C747 152 602 7 409 7 C319 7 240 38 181 91 L650 595 C710 534 747 448 747 350 L747 350 Z M71 350 C71 548 216 693 409 693 C498 693 577 662 636 609 L167 105 C107 166 71 251 71 350 L71 350 Z " />
<glyph glyph-name="Ugrave" unicode="&#xd9;" horiz-adv-x="714" d="M97 700 L97 265 C97 149 149 -12 357 -12 C565 -12 617 149 617 265 L617 700 L597 700 L597 265 C597 157 549 7 357 7 C165 7 117 157 117 265 L117 700 L97 700 Z M372 758 L396 758 L281 900 L255 900 L372 758 Z " />
<glyph glyph-name="Uacute" unicode="&#xda;" horiz-adv-x="714" d="M97 700 L97 265 C97 149 149 -12 357 -12 C565 -12 617 149 617 265 L617 700 L597 700 L597 265 C597 157 549 7 357 7 C165 7 117 157 117 265 L117 700 L97 700 Z M470 900 L444 900 L329 758 L353 758 L470 900 Z " />
<glyph glyph-name="Ucircumflex" unicode="&#xdb;" horiz-adv-x="714" d="M97 700 L97 265 C97 149 149 -12 357 -12 C565 -12 617 149 617 265 L617 700 L597 700 L597 265 C597 157 549 7 357 7 C165 7 117 157 117 265 L117 700 L97 700 Z M235 758 L259 758 L356 884 L358 884 L455 758 L479 758 L369 901 L345 901 L235 758 Z " />
<glyph glyph-name="Udieresis" unicode="&#xdc;" horiz-adv-x="714" d="M97 700 L97 265 C97 149 149 -12 357 -12 C565 -12 617 149 617 265 L617 700 L597 700 L597 265 C597 157 549 7 357 7 C165 7 117 157 117 265 L117 700 L97 700 Z M253 800 L273 800 L273 885 L253 885 L253 800 Z M443 800 L463 800 L463 885 L443 885 L443 800 Z " />
<glyph glyph-name="Yacute" unicode="&#xdd;" horiz-adv-x="626" d="M323 0 L323 300 L587 700 L564 700 L314 319 L312 319 L62 700 L39 700 L303 300 L303 0 L323 0 Z M444 900 L418 900 L303 758 L327 758 L444 900 Z " />
<glyph glyph-name="Thorn" unicode="&#xde;" horiz-adv-x="562" d="M108 0 L128 0 L128 185 L284 185 C445 185 532 246 532 361 C532 480 440 535 284 535 L128 535 L128 700 L108 700 L108 0 Z M128 516 L284 516 C427 516 511 467 511 361 C511 258 432 204 284 204 L128 204 L128 516 Z " />
<glyph glyph-name="germandbls" unicode="&#xdf;" horiz-adv-x="566" d="M107 0 L107 570 C107 672 173 720 267 720 C383 720 431 651 431 584 C431 524 374 456 335 426 C310 407 295 394 295 378 C295 358 322 344 358 326 C421 293 513 244 513 151 C513 56 430 15 315 15 C241 15 197 29 194 30 L190 11 C194 10 239 -4 315 -4 C441 -4 534 43 534 151 C534 256 434 308 367 343 C337 358 317 367 317 379 C317 387 329 398 346 411 C389 444 451 515 451 584 C451 660 398 739 267 739 C162 739 87 685 87 570 L87 0 L107 0 Z " />
<glyph glyph-name="agrave" unicode="&#xe0;" horiz-adv-x="550" d="M293 602 L317 602 L202 744 L176 744 L293 602 Z M439 267 L439 107 C388 53 318 7 233 7 C152 7 59 35 59 127 C59 249 242 266 439 267 L439 267 Z M521 20 C521 20 516 19 511 19 C484 19 459 38 459 89 L459 331 C459 452 372 512 265 512 C180 512 109 481 69 441 L83 427 C120 465 186 493 265 493 C361 493 439 440 439 331 L439 286 C232 284 39 265 39 127 C39 21 142 -12 233 -12 C318 -12 387 31 441 84 L443 84 C445 20 478 0 511 0 C516 0 521 0 524 1 L521 20 Z " />
<glyph glyph-name="aacute" unicode="&#xe1;" horiz-adv-x="550" d="M345 744 L230 602 L254 602 L371 744 L345 744 Z M439 267 L439 107 C388 53 318 7 233 7 C152 7 59 35 59 127 C59 249 242 266 439 267 L439 267 Z M521 20 C521 20 516 19 511 19 C484 19 459 38 459 89 L459 331 C459 452 372 512 265 512 C180 512 109 481 69 441 L83 427 C120 465 186 493 265 493 C361 493 439 440 439 331 L439 286 C232 284 39 265 39 127 C39 21 142 -12 233 -12 C318 -12 387 31 441 84 L443 84 C445 20 478 0 511 0 C516 0 521 0 524 1 L521 20 Z " />
<glyph glyph-name="acircumflex" unicode="&#xe2;" horiz-adv-x="550" d="M145 602 L169 602 L266 728 L268 728 L365 602 L389 602 L279 745 L255 745 L145 602 Z M439 267 L439 107 C388 53 318 7 233 7 C152 7 59 35 59 127 C59 249 242 266 439 267 L439 267 Z M521 20 C521 20 516 19 511 19 C484 19 459 38 459 89 L459 331 C459 452 372 512 265 512 C180 512 109 481 69 441 L83 427 C120 465 186 493 265 493 C361 493 439 440 439 331 L439 286 C232 284 39 265 39 127 C39 21 142 -12 233 -12 C318 -12 387 31 441 84 L443 84 C445 20 478 0 511 0 C516 0 521 0 524 1 L521 20 Z " />
<glyph glyph-name="atilde" unicode="&#xe3;" horiz-adv-x="550" d="M439 267 L439 107 C388 53 318 7 233 7 C152 7 59 35 59 127 C59 249 242 266 439 267 L439 267 Z M521 20 C521 20 516 19 511 19 C484 19 459 38 459 89 L459 331 C459 452 372 512 265 512 C180 512 109 481 69 441 L83 427 C120 465 186 493 265 493 C361 493 439 440 439 331 L439 286 C232 284 39 265 39 127 C39 21 142 -12 233 -12 C318 -12 387 31 441 84 L443 84 C445 20 478 0 511 0 C516 0 521 0 524 1 L521 20 Z M124 627 C134 667 153 696 182 696 C210 696 238 678 266 659 C289 643 317 628 342 628 C383 628 408 662 421 714 L401 714 C390 675 372 647 342 647 C321 647 296 661 275 675 C245 697 214 716 182 716 C142 716 117 679 104 627 L124 627 Z " />
<glyph glyph-name="adieresis" unicode="&#xe4;" horiz-adv-x="550" d="M159 615 L179 615 L179 700 L159 700 L159 615 Z M349 615 L369 615 L369 700 L349 700 L349 615 Z M439 267 L439 107 C388 53 318 7 233 7 C152 7 59 35 59 127 C59 249 242 266 439 267 L439 267 Z M521 20 C521 20 516 19 511 19 C484 19 459 38 459 89 L459 331 C459 452 372 512 265 512 C180 512 109 481 69 441 L83 427 C120 465 186 493 265 493 C361 493 439 440 439 331 L439 286 C232 284 39 265 39 127 C39 21 142 -12 233 -12 C318 -12 387 31 441 84 L443 84 C445 20 478 0 511 0 C516 0 521 0 524 1 L521 20 Z " />
<glyph glyph-name="aring" unicode="&#xe5;" horiz-adv-x="550" d="M358 684 C358 737 314 778 263 778 C211 778 168 737 168 684 C168 630 211 590 263 590 C314 590 358 630 358 684 L358 684 Z M339 684 C339 641 304 609 263 609 C221 609 187 641 187 684 C187 726 221 759 263 759 C304 759 339 726 339 684 L339 684 Z M439 267 L439 107 C388 53 318 7 233 7 C152 7 59 35 59 127 C59 249 242 266 439 267 L439 267 Z M521 20 C521 20 516 19 511 19 C484 19 459 38 459 89 L459 331 C459 452 372 512 265 512 C180 512 109 481 69 441 L83 427 C120 465 186 493 265 493 C361 493 439 440 439 331 L439 286 C232 284 39 265 39 127 C39 21 142 -12 233 -12 C318 -12 387 31 441 84 L443 84 C445 20 478 0 511 0 C516 0 521 0 524 1 L521 20 Z " />
<glyph glyph-name="ae" unicode="&#xe6;" horiz-adv-x="896" d="M224 7 C147 7 60 38 60 125 C60 245 232 263 417 264 L417 150 C417 38 303 7 224 7 L224 7 Z M651 493 C778 493 837 392 828 281 L438 281 C450 414 542 493 651 493 L651 493 Z M667 7 C528 7 438 112 437 263 L847 263 C847 263 850 290 850 302 C850 417 784 512 651 512 C550 512 464 450 434 342 L432 342 C427 453 355 512 253 512 C173 512 106 481 68 441 L82 428 C116 465 178 493 253 493 C347 493 417 437 417 326 L417 283 C221 282 40 262 40 125 C40 23 137 -12 224 -12 C290 -12 376 8 414 72 C427 95 431 113 433 162 L435 162 C465 55 554 -12 667 -12 C772 -12 841 58 841 58 L827 71 C827 71 765 7 667 7 L667 7 Z " />
<glyph glyph-name="ccedilla" unicode="&#xe7;" horiz-adv-x="536" d="M499 426 C463 478 400 512 312 512 C166 512 47 414 47 250 C47 105 141 3 285 -10 L226 -98 L238 -110 C255 -99 281 -92 308 -92 C342 -92 376 -104 376 -137 C376 -180 329 -193 289 -193 C255 -193 219 -185 204 -175 L194 -190 C213 -202 252 -212 289 -212 C341 -212 396 -193 396 -138 C396 -92 352 -76 312 -76 C290 -76 270 -81 255 -87 C254 -87 254 -86 253 -86 L306 -12 C417 -15 484 50 503 74 L488 85 C488 85 430 7 318 7 C168 7 67 106 67 250 C67 402 177 493 312 493 C393 493 451 462 483 415 L499 426 Z " />
<glyph glyph-name="egrave" unicode="&#xe8;" horiz-adv-x="579" d="M305 602 L329 602 L214 744 L188 744 L305 602 Z M533 260 C533 260 535 286 535 300 C535 415 460 512 311 512 C165 512 46 414 46 250 C46 95 166 -12 328 -12 C448 -12 525 58 525 58 L513 72 C513 72 441 7 328 7 C179 7 66 103 66 260 L533 260 Z M311 493 C455 493 524 392 513 278 L68 278 C80 413 185 493 311 493 L311 493 Z " />
<glyph glyph-name="eacute" unicode="&#xe9;" horiz-adv-x="579" d="M275 602 L299 602 L416 744 L390 744 L275 602 Z M533 260 C533 260 535 286 535 300 C535 415 460 512 311 512 C165 512 46 414 46 250 C46 95 166 -12 328 -12 C448 -12 525 58 525 58 L513 72 C513 72 441 7 328 7 C179 7 66 103 66 260 L533 260 Z M311 493 C455 493 524 392 513 278 L68 278 C80 413 185 493 311 493 L311 493 Z " />
<glyph glyph-name="ecircumflex" unicode="&#xea;" horiz-adv-x="579" d="M182 602 L206 602 L303 728 L305 728 L402 602 L426 602 L316 745 L292 745 L182 602 Z M533 260 C533 260 535 286 535 300 C535 415 460 512 311 512 C165 512 46 414 46 250 C46 95 166 -12 328 -12 C448 -12 525 58 525 58 L513 72 C513 72 441 7 328 7 C179 7 66 103 66 260 L533 260 Z M311 493 C455 493 524 392 513 278 L68 278 C80 413 185 493 311 493 L311 493 Z " />
<glyph glyph-name="edieresis" unicode="&#xeb;" horiz-adv-x="579" d="M199 615 L219 615 L219 700 L199 700 L199 615 Z M389 615 L409 615 L409 700 L389 700 L389 615 Z M533 260 C533 260 535 286 535 300 C535 415 460 512 311 512 C165 512 46 414 46 250 C46 95 166 -12 328 -12 C448 -12 525 58 525 58 L513 72 C513 72 441 7 328 7 C179 7 66 103 66 260 L533 260 Z M311 493 C455 493 524 392 513 278 L68 278 C80 413 185 493 311 493 L311 493 Z " />
<glyph glyph-name="igrave" unicode="&#xec;" horiz-adv-x="200" d="M90 0 L110 0 L110 500 L90 500 L90 0 Z M87 602 L111 602 L-4 744 L-30 744 L87 602 Z " />
<glyph glyph-name="iacute" unicode="&#xed;" horiz-adv-x="201" d="M91 0 L111 0 L111 500 L91 500 L91 0 Z M230 744 L204 744 L89 602 L113 602 L230 744 Z " />
<glyph glyph-name="icircumflex" unicode="&#xee;" horiz-adv-x="201" d="M90 0 L110 0 L110 500 L90 500 L90 0 Z M-20 602 L4 602 L101 728 L103 728 L200 602 L224 602 L113 745 L90 745 L-20 602 Z " />
<glyph glyph-name="idieresis" unicode="&#xef;" horiz-adv-x="200" d="M90 0 L110 0 L110 500 L90 500 L90 0 Z M-4 615 L16 615 L16 700 L-4 700 L-4 615 Z M186 615 L206 615 L206 700 L186 700 L186 615 Z " />
<glyph glyph-name="eth" unicode="&#xf0;" horiz-adv-x="615" d="M441 710 L432 727 L293 662 C252 691 209 719 167 745 L158 729 C197 705 237 679 275 652 L138 588 L147 571 L293 639 C387 570 474 486 516 394 L514 393 C473 459 395 500 306 500 C156 500 47 391 47 244 C47 97 156 -12 306 -12 C459 -12 566 97 566 244 C566 416 449 545 311 649 L441 710 Z M546 244 C546 108 447 7 306 7 C168 7 67 108 67 244 C67 380 168 481 306 481 C443 481 546 385 546 244 L546 244 Z " />
<glyph glyph-name="ntilde" unicode="&#xf1;" horiz-adv-x="608" d="M107 0 L107 378 C128 436 207 493 301 493 C441 493 509 419 509 306 L509 0 L529 0 L529 306 C529 430 454 512 301 512 C219 512 142 467 109 413 L107 413 L107 500 L87 500 L87 0 L107 0 Z M171 627 C181 667 200 696 229 696 C257 696 285 678 313 659 C336 643 364 628 389 628 C430 628 455 662 468 714 L448 714 C437 675 419 647 389 647 C368 647 343 661 322 675 C292 696 261 716 229 716 C189 716 164 679 151 627 L171 627 Z " />
<glyph glyph-name="ograve" unicode="&#xf2;" horiz-adv-x="624" d="M577 250 C577 400 467 512 311 512 C157 512 46 400 46 250 C46 100 157 -12 311 -12 C467 -12 577 100 577 250 L577 250 Z M557 250 C557 111 455 7 311 7 C169 7 66 111 66 250 C66 389 169 493 311 493 C455 493 557 389 557 250 L557 250 Z M308 602 L332 602 L217 744 L191 744 L308 602 Z " />
<glyph glyph-name="oacute" unicode="&#xf3;" horiz-adv-x="624" d="M577 250 C577 400 467 512 311 512 C157 512 46 400 46 250 C46 100 157 -12 311 -12 C467 -12 577 100 577 250 L577 250 Z M557 250 C557 111 455 7 311 7 C169 7 66 111 66 250 C66 389 169 493 311 493 C455 493 557 389 557 250 L557 250 Z M431 744 L405 744 L290 602 L314 602 L431 744 Z " />
<glyph glyph-name="ocircumflex" unicode="&#xf4;" horiz-adv-x="624" d="M577 250 C577 400 467 512 311 512 C157 512 46 400 46 250 C46 100 157 -12 311 -12 C467 -12 577 100 577 250 L577 250 Z M557 250 C557 111 455 7 311 7 C169 7 66 111 66 250 C66 389 169 493 311 493 C455 493 557 389 557 250 L557 250 Z M189 602 L213 602 L310 728 L312 728 L409 602 L433 602 L323 745 L299 745 L189 602 Z " />
<glyph glyph-name="otilde" unicode="&#xf5;" horiz-adv-x="624" d="M577 250 C577 400 467 512 311 512 C157 512 46 400 46 250 C46 100 157 -12 311 -12 C467 -12 577 100 577 250 L577 250 Z M557 250 C557 111 455 7 311 7 C169 7 66 111 66 250 C66 389 169 493 311 493 C455 493 557 389 557 250 L557 250 Z M173 627 C183 667 202 696 231 696 C259 696 287 678 315 659 C338 643 366 628 391 628 C432 628 457 662 470 714 L450 714 C439 675 421 647 391 647 C370 647 345 661 324 675 C294 696 263 716 231 716 C191 716 166 679 153 627 L173 627 Z " />
<glyph glyph-name="odieresis" unicode="&#xf6;" horiz-adv-x="624" d="M577 250 C577 400 467 512 311 512 C157 512 46 400 46 250 C46 100 157 -12 311 -12 C467 -12 577 100 577 250 L577 250 Z M557 250 C557 111 455 7 311 7 C169 7 66 111 66 250 C66 389 169 493 311 493 C455 493 557 389 557 250 L557 250 Z M206 615 L226 615 L226 700 L206 700 L206 615 Z M396 615 L416 615 L416 700 L396 700 L396 615 Z " />
<glyph glyph-name="divide" unicode="&#xf7;" horiz-adv-x="703" d="M79 315 L624 315 L624 333 L79 333 L79 315 Z M342 93 L362 93 L362 178 L342 178 L342 93 Z M342 469 L362 469 L362 554 L342 554 L342 469 Z " />
<glyph glyph-name="oslash" unicode="&#xf8;" horiz-adv-x="616" d="M556 519 L487 447 C441 488 379 512 307 512 C153 512 42 400 42 250 C42 176 69 113 114 66 L43 -7 L57 -21 L128 52 C174 12 236 -12 307 -12 C463 -12 573 100 573 250 C573 323 547 387 501 434 L570 505 L556 519 Z M553 250 C553 111 451 7 307 7 C242 7 184 29 142 67 L487 419 C528 377 553 317 553 250 L553 250 Z M63 250 C63 389 165 493 307 493 C373 493 430 471 473 433 L128 80 C87 123 63 182 63 250 L63 250 Z " />
<glyph glyph-name="ugrave" unicode="&#xf9;" horiz-adv-x="607" d="M500 500 L500 122 C479 64 400 7 306 7 C166 7 98 81 98 194 L98 500 L78 500 L78 194 C78 70 153 -12 306 -12 C388 -12 465 33 498 87 L500 87 L500 0 L520 0 L520 500 L500 500 Z M307 602 L331 602 L216 744 L190 744 L307 602 Z " />
<glyph glyph-name="uacute" unicode="&#xfa;" horiz-adv-x="607" d="M500 500 L500 122 C479 64 400 7 306 7 C166 7 98 81 98 194 L98 500 L78 500 L78 194 C78 70 153 -12 306 -12 C388 -12 465 33 498 87 L500 87 L500 0 L520 0 L520 500 L500 500 Z M409 744 L383 744 L268 602 L292 602 L409 744 Z " />
<glyph glyph-name="ucircumflex" unicode="&#xfb;" horiz-adv-x="607" d="M500 500 L500 122 C479 64 400 7 306 7 C166 7 98 81 98 194 L98 500 L78 500 L78 194 C78 70 153 -12 306 -12 C388 -12 465 33 498 87 L500 87 L500 0 L520 0 L520 500 L500 500 Z M177 602 L201 602 L298 728 L300 728 L397 602 L421 602 L311 745 L287 745 L177 602 Z " />
<glyph glyph-name="udieresis" unicode="&#xfc;" horiz-adv-x="607" d="M500 500 L500 122 C479 64 400 7 306 7 C166 7 98 81 98 194 L98 500 L78 500 L78 194 C78 70 153 -12 306 -12 C388 -12 465 33 498 87 L500 87 L500 0 L520 0 L520 500 L500 500 Z M195 615 L215 615 L215 700 L195 700 L195 615 Z M385 615 L405 615 L405 700 L385 700 L385 615 Z " />
<glyph glyph-name="yacute" unicode="&#xfd;" horiz-adv-x="531" d="M29 500 L254 3 L216 -79 C185 -145 155 -186 87 -186 C68 -186 48 -184 30 -180 L26 -198 C45 -202 66 -204 87 -204 C170 -204 201 -160 235 -87 L502 500 L480 500 L266 28 L264 28 L52 500 L29 500 Z M389 744 L363 744 L248 602 L272 602 L389 744 Z " />
<glyph glyph-name="thorn" unicode="&#xfe;" horiz-adv-x="592" d="M87 -200 L107 -200 L107 76 L109 76 C151 22 213 -12 290 -12 C431 -12 546 100 546 250 C546 400 431 512 290 512 C212 512 150 477 109 424 L107 424 L107 730 L87 730 L87 -200 Z M290 7 C214 7 146 44 107 106 L107 393 C146 458 215 493 290 493 C420 493 526 389 526 250 C526 111 420 7 290 7 L290 7 Z " />
<glyph glyph-name="ydieresis" unicode="&#xff;" horiz-adv-x="531" d="M29 500 L254 3 L216 -79 C185 -145 155 -186 87 -186 C68 -186 48 -184 30 -180 L26 -198 C45 -202 66 -204 87 -204 C170 -204 201 -160 235 -87 L502 500 L480 500 L266 28 L264 28 L52 500 L29 500 Z M168 615 L188 615 L188 700 L168 700 L168 615 Z M358 615 L378 615 L378 700 L358 700 L358 615 Z " />
<glyph glyph-name="OE" unicode="&#x152;" horiz-adv-x="959" d="M520 373 L520 681 L907 681 L907 700 L401 700 C202 700 54 553 54 350 C54 147 202 0 401 0 L918 0 L918 19 L520 19 L520 355 L885 355 L885 373 L520 373 Z M401 19 C214 19 75 158 75 350 C75 542 214 681 401 681 L499 681 L499 19 L401 19 Z " />
<glyph glyph-name="oe" unicode="&#x153;" horiz-adv-x="1002" d="M935 71 C935 71 872 7 774 7 C635 7 545 111 544 260 L955 260 C955 260 957 287 957 300 C957 415 891 512 759 512 C649 512 559 442 535 319 L533 319 C508 433 417 512 295 512 C151 512 47 400 47 250 C47 100 151 -12 295 -12 C419 -12 509 68 533 183 L535 183 C560 64 654 -12 774 -12 C880 -12 948 58 948 58 L935 71 Z M759 493 C873 493 932 410 935 309 C936 300 936 285 935 278 L546 278 C557 413 648 493 759 493 L759 493 Z M295 493 C429 493 524 389 524 250 C524 111 429 7 295 7 C163 7 67 111 67 250 C67 389 163 493 295 493 L295 493 Z " />
<glyph glyph-name="Scaron" unicode="&#x160;" horiz-adv-x="527" d="M268 7 C135 7 61 91 61 91 L47 78 C47 78 126 -12 268 -12 C399 -12 480 68 480 149 C480 267 375 314 271 365 C175 411 81 453 81 549 C81 626 161 693 278 693 C391 693 450 630 450 630 L464 644 C464 644 399 712 278 712 C149 712 60 636 60 549 C60 443 163 394 261 347 C358 300 459 253 459 149 C459 77 387 7 268 7 L268 7 Z M259 758 L283 758 L393 901 L369 901 L272 776 L270 776 L173 901 L149 901 L259 758 Z " />
<glyph glyph-name="scaron" unicode="&#x161;" horiz-adv-x="444" d="M227 7 C117 7 57 74 57 74 L43 61 C43 61 108 -12 227 -12 C340 -12 401 45 401 113 C401 207 311 236 227 263 C152 286 75 313 75 384 C75 448 144 493 235 493 C326 493 373 444 373 444 L387 457 C387 457 335 512 235 512 C133 512 54 459 54 384 C54 297 136 271 221 245 C300 220 381 195 381 113 C381 55 326 7 227 7 L227 7 Z M227 602 L251 602 L361 745 L337 745 L240 620 L238 620 L141 745 L117 745 L227 602 Z " />
<glyph glyph-name="Ydieresis" unicode="&#x178;" horiz-adv-x="626" d="M323 0 L323 300 L587 700 L564 700 L314 319 L312 319 L62 700 L39 700 L303 300 L303 0 L323 0 Z M208 800 L228 800 L228 885 L208 885 L208 800 Z M398 800 L418 800 L418 885 L398 885 L398 800 Z " />
<glyph glyph-name="Zcaron" unicode="&#x17d;" horiz-adv-x="554" d="M35 681 L494 681 L494 679 L24 17 L24 0 L528 0 L528 19 L51 19 L51 21 L522 683 L522 700 L35 700 L35 681 Z M265 758 L288 758 L399 901 L375 901 L278 776 L276 776 L179 901 L155 901 L265 758 Z " />
<glyph glyph-name="zcaron" unicode="&#x17e;" horiz-adv-x="459" d="M245 602 L355 745 L331 745 L234 620 L232 620 L135 745 L112 745 L222 602 L245 602 Z M53 20 L420 485 L420 500 L40 500 L40 482 L392 482 L392 480 L25 15 L25 0 L431 0 L431 18 L53 18 L53 20 Z " />
<glyph glyph-name="florin" unicode="&#x192;" horiz-adv-x="504" d="M477 686 C455 703 426 712 396 712 C306 712 272 642 259 566 L227 397 L89 397 C89 395 89 381 89 379 L223 379 L154 7 C143 -51 114 -118 34 -118 C11 -118 -8 -116 -24 -107 L-33 -122 C-12 -134 9 -137 34 -137 C131 -137 161 -63 174 3 L243 379 L384 379 C384 381 384 395 384 397 L247 397 L279 562 C291 630 319 693 396 693 C423 693 448 685 466 672 L477 686 Z " />
<glyph glyph-name="circumflex" unicode="&#x2c6;" horiz-adv-x="344" d="M50 602 L74 602 L171 728 L173 728 L270 602 L294 602 L183 745 L160 745 L50 602 Z " />
<glyph glyph-name="caron" unicode="&#x2c7;" horiz-adv-x="344" d="M294 745 L270 745 L173 620 L171 620 L74 745 L50 745 L160 602 L183 602 L294 745 Z " />
<glyph glyph-name="tilde" unicode="&#x2dc;" horiz-adv-x="417" d="M69 627 C80 667 99 696 128 696 C156 696 184 678 212 659 C235 643 263 628 288 628 C329 628 353 662 367 714 L347 714 C336 675 318 647 288 647 C267 647 241 661 221 675 C191 697 159 716 128 716 C88 716 63 679 50 627 L69 627 Z " />
<glyph glyph-name="endash" unicode="&#x2013;" horiz-adv-x="475" d="M56 251 L419 251 L419 269 L56 269 L56 251 Z " />
<glyph glyph-name="emdash" unicode="&#x2014;" horiz-adv-x="689" d="M56 251 L633 251 L633 269 L56 269 L56 251 Z " />
<glyph glyph-name="quoteleft" unicode="&#x2018;" horiz-adv-x="212" d="M144 468 L72 700 L51 700 L124 468 L144 468 Z " />
<glyph glyph-name="quoteright" unicode="&#x2019;" horiz-adv-x="212" d="M161 700 L140 700 L68 468 L88 468 L161 700 Z " />
<glyph glyph-name="quotesinglbase" unicode="&#x201a;" horiz-adv-x="147" d="M101 94 L80 94 L8 -138 L28 -138 L101 94 Z " />
<glyph glyph-name="quotedblleft" unicode="&#x201c;" horiz-adv-x="375" d="M51 700 L124 468 L144 468 L72 700 L51 700 Z M214 700 L287 468 L307 468 L235 700 L214 700 Z " />
<glyph glyph-name="quotedblright" unicode="&#x201d;" horiz-adv-x="375" d="M68 468 L88 468 L161 700 L140 700 L68 468 Z M231 468 L251 468 L324 700 L303 700 L231 468 Z " />
<glyph glyph-name="quotedblbase" unicode="&#x201e;" horiz-adv-x="310" d="M101 94 L80 94 L8 -138 L28 -138 L101 94 Z M264 94 L243 94 L171 -138 L191 -138 L264 94 Z " />
<glyph glyph-name="dagger" unicode="&#x2020;" horiz-adv-x="525" d="M37 479 L37 461 L252 461 L252 -125 L272 -125 L272 461 L488 461 L488 479 L272 479 L272 700 L252 700 L252 479 L37 479 Z " />
<glyph glyph-name="daggerdbl" unicode="&#x2021;" horiz-adv-x="577" d="M514 104 L298 104 L298 471 L514 471 L514 489 L298 489 L298 700 L278 700 L278 489 L63 489 L63 471 L278 471 L278 104 L63 104 L63 86 L278 86 L278 -125 L298 -125 L298 86 L514 86 L514 104 Z " />
<glyph glyph-name="bullet" unicode="&#x2022;" horiz-adv-x="498" d="M249 522 C146 522 81 447 81 355 C81 262 146 186 249 186 C352 186 417 262 417 355 C417 447 352 522 249 522 L249 522 Z " />
<glyph glyph-name="ellipsis" unicode="&#x2026;" horiz-adv-x="798" d="M80 0 L80 85 L60 85 L60 0 L80 0 Z M409 0 L409 85 L389 85 L389 0 L409 0 Z M738 0 L738 85 L718 85 L718 0 L738 0 Z " />
<glyph glyph-name="perthousand" unicode="&#x2030;" horiz-adv-x="1206" d="M371 539 C371 632 298 704 205 704 C112 704 39 632 39 539 C39 446 112 374 205 374 C298 374 371 446 371 539 L371 539 Z M771 161 C771 254 698 326 605 326 C512 326 439 254 439 161 C439 68 512 -4 605 -4 C698 -4 771 68 771 161 L771 161 Z M350 539 C350 457 287 393 205 393 C123 393 60 457 60 539 C60 621 123 685 205 685 C287 685 350 621 350 539 L350 539 Z M750 161 C750 79 687 15 605 15 C523 15 460 79 460 161 C460 243 523 307 605 307 C687 307 750 243 750 161 L750 161 Z M616 718 L170 -18 L192 -18 L638 718 L616 718 Z M1168 161 C1168 254 1095 326 1002 326 C909 326 836 254 836 161 C836 68 909 -4 1002 -4 C1095 -4 1168 68 1168 161 L1168 161 Z M1147 161 C1147 79 1084 15 1002 15 C920 15 857 79 857 161 C857 243 920 307 1002 307 C1084 307 1147 243 1147 161 L1147 161 Z " />
<glyph glyph-name="guilsinglleft" unicode="&#x2039;" horiz-adv-x="286" d="M218 51 L83 256 L219 462 L196 462 L61 256 L195 51 L218 51 Z " />
<glyph glyph-name="guilsinglright" unicode="&#x203a;" horiz-adv-x="286" d="M225 256 L90 462 L67 462 L203 256 L68 51 L91 51 L225 256 Z " />
<glyph glyph-name="Euro" unicode="&#x20ac;" horiz-adv-x="768" d="M707 110 C646 46 559 7 460 7 C299 7 172 108 134 256 L559 256 L566 274 L129 274 C124 299 122 324 122 350 C122 377 124 402 130 428 L622 428 L629 446 L135 446 C173 593 300 693 460 693 C549 693 628 662 689 608 L696 628 C634 681 552 712 460 712 C288 712 151 604 112 446 L47 446 L47 428 L108 428 C104 402 101 377 101 350 C101 324 103 299 108 274 L45 274 L45 256 L112 256 C151 96 287 -12 460 -12 C565 -12 657 29 721 96 L707 110 Z " />
<glyph glyph-name="trademark" unicode="&#x2122;" horiz-adv-x="887" d="M39 681 L186 681 L186 293 L206 293 L206 681 L353 681 L353 700 L39 700 L39 681 Z M772 293 L792 293 L792 700 L772 700 L615 321 L613 321 L453 700 L433 700 L433 293 L453 293 L453 646 L455 646 L602 293 L625 293 L770 646 L772 646 L772 293 Z " />
</font>
</svg>
