<?xml version="1.0" encoding="UTF-8"?>
<svg xmlns="http://www.w3.org/2000/svg" xmlns:xlink="http://www.w3.org/1999/xlink" version="1.2" >
<font id="Gentleman 400 Light">
<font-face  font-family="Gentleman 400" units-per-em="1000" ascent="750" descent="-250" font-style="normal" font-weight="400" font-stretch="normal" cap-height="700" x-height="500" underline-position="-75" underline-thickness="50" />
<missing-glyph  horiz-adv-x="624" d="M50 700 L50 0 L574 0 L574 700 L50 700 Z M102 654 L522 654 L522 46 L102 46 L102 654 Z " />
<glyph glyph-name="NULL" d="" />
<glyph glyph-name="&amp;#x0;" horiz-adv-x="250" d="" />
<glyph glyph-name="&amp;#xd;" unicode="&#xd;" horiz-adv-x="250" d="" />
<glyph glyph-name="space" unicode="&#x20;" horiz-adv-x="278" d="" />
<glyph glyph-name="exclam" unicode="&#x21;" horiz-adv-x="272" d="M110 190 L162 190 L162 700 L110 700 L110 190 Z M110 0 L162 0 L162 85 L110 85 L110 0 Z " />
<glyph glyph-name="quotedbl" unicode="&#x22;" horiz-adv-x="349" d="M77 468 L129 468 L129 700 L77 700 L77 468 Z M220 468 L272 468 L272 700 L220 700 L220 468 Z " />
<glyph glyph-name="numbersign" unicode="&#x23;" horiz-adv-x="572" d="M69 438 L181 438 L157 265 L46 265 L46 219 L150 219 L121 0 L174 0 L203 219 L342 219 L313 0 L366 0 L395 219 L503 219 L503 265 L402 265 L426 438 L526 438 L526 484 L432 484 L462 700 L409 700 L379 484 L240 484 L270 700 L217 700 L187 484 L69 484 L69 438 Z M234 438 L373 438 L349 265 L210 265 L234 438 Z " />
<glyph glyph-name="dollar" unicode="&#x24;" horiz-adv-x="522" d="M423 161 C423 94 363 36 265 36 C144 36 79 110 79 110 L43 78 C43 78 113 -3 243 -11 L243 -94 L295 -94 L295 -10 C408 1 477 77 477 161 C477 289 375 328 275 377 C191 417 110 448 110 538 C110 607 177 664 275 664 C376 664 427 611 427 611 L461 644 C461 644 403 704 295 711 L295 795 L243 795 L243 710 C131 698 57 626 57 538 C57 421 156 380 251 334 C333 294 423 257 423 161 L423 161 Z " />
<glyph glyph-name="percent" unicode="&#x25;" horiz-adv-x="808" d="M370 539 C370 632 297 704 204 704 C111 704 38 632 38 539 C38 446 111 374 204 374 C297 374 370 446 370 539 L370 539 Z M770 161 C770 254 697 326 604 326 C511 326 438 254 438 161 C438 68 511 -4 604 -4 C697 -4 770 68 770 161 L770 161 Z M317 539 C317 473 267 422 204 422 C141 422 91 473 91 539 C91 605 141 656 204 656 C267 656 317 605 317 539 L317 539 Z M717 161 C717 95 667 44 604 44 C541 44 491 95 491 161 C491 227 541 278 604 278 C667 278 717 227 717 161 L717 161 Z M596 718 L150 -18 L209 -18 L655 718 L596 718 Z " />
<glyph glyph-name="ampersand" unicode="&#x26;" horiz-adv-x="700" d="M218 564 C219 628 264 664 316 664 C367 664 410 631 410 572 C410 512 355 462 293 422 C256 465 218 515 218 564 L218 564 Z M282 36 C203 36 137 83 137 167 C137 259 191 304 282 356 L455 152 C410 81 363 36 282 36 L282 36 Z M165 564 C165 503 209 444 251 395 C151 335 84 276 84 167 C84 52 173 -12 282 -12 C382 -12 437 35 488 111 L582 0 L647 0 L516 156 L651 376 L593 376 L483 197 L324 384 C399 431 463 492 463 572 C463 662 396 712 316 712 C234 712 165 659 165 564 L165 564 Z " />
<glyph glyph-name="quotesingle" unicode="&#x27;" horiz-adv-x="206" d="M77 468 L129 468 L129 700 L77 700 L77 468 Z " />
<glyph glyph-name="parenleft" unicode="&#x28;" horiz-adv-x="270" d="M197 722 C111 614 50 453 50 285 C50 117 111 -44 197 -152 L234 -124 C158 -23 102 127 102 285 C102 443 158 593 234 694 L197 722 Z " />
<glyph glyph-name="parenright" unicode="&#x29;" horiz-adv-x="270" d="M36 694 C113 593 168 443 168 285 C168 127 113 -23 36 -124 L74 -152 C160 -44 220 117 220 285 C220 453 160 614 74 722 L36 694 Z " />
<glyph glyph-name="asterisk" unicode="&#x2a;" horiz-adv-x="478" d="M373 380 L276 510 L423 553 L409 597 L262 551 L263 700 L211 700 L212 552 L69 600 L53 556 L200 510 L102 380 L144 352 L237 482 L331 352 L373 380 Z " />
<glyph glyph-name="plus" unicode="&#x2b;" horiz-adv-x="631" d="M43 301 L290 301 L290 51 L342 51 L342 301 L588 301 L588 347 L342 347 L342 596 L290 596 L290 347 L43 347 L43 301 Z " />
<glyph glyph-name="comma" unicode="&#x2c;" horiz-adv-x="210" d="M70 -140 L144 95 L90 95 L19 -140 L70 -140 Z " />
<glyph glyph-name="hyphen" unicode="&#x2d;" horiz-adv-x="350" d="M55 237 L295 237 L295 283 L55 283 L55 237 Z " />
<glyph glyph-name="period" unicode="&#x2e;" horiz-adv-x="184" d="M66 0 L118 0 L118 85 L66 85 L66 0 Z " />
<glyph glyph-name="slash" unicode="&#x2f;" horiz-adv-x="427" d="M338 716 L35 -9 L90 -9 L393 716 L338 716 Z " />
<glyph glyph-name="zero" unicode="0" horiz-adv-x="577" d="M289 712 C116 712 63 528 63 349 C63 170 116 -12 289 -12 C460 -12 515 170 515 349 C515 528 460 712 289 712 L289 712 Z M289 665 C420 665 462 505 462 349 C462 193 420 35 289 35 C156 35 116 193 116 349 C116 505 156 665 289 665 L289 665 Z " />
<glyph glyph-name="one" unicode="1" horiz-adv-x="322" d="M157 650 L159 650 L159 0 L210 0 L210 700 L146 700 L19 596 L51 562 L157 650 Z " />
<glyph glyph-name="two" unicode="2" horiz-adv-x="543" d="M494 46 L106 46 L106 55 C106 262 483 317 483 529 C483 621 404 712 270 712 C122 712 58 586 58 586 C72 579 86 572 100 564 C100 564 151 665 270 665 C370 665 430 599 430 529 C430 347 53 288 53 55 L53 0 L494 0 L494 46 Z " />
<glyph glyph-name="three" unicode="3" horiz-adv-x="556" d="M275 337 C339 335 437 292 437 191 C437 85 367 35 256 35 C122 34 87 140 87 140 L42 125 C42 125 88 -12 258 -12 C398 -11 490 53 490 191 C490 285 413 346 339 361 L339 363 C405 377 471 436 471 525 C471 618 405 712 260 712 C111 712 68 602 68 602 L112 585 C112 585 143 665 262 665 C369 666 418 595 418 525 C418 434 340 386 277 384 L228 384 L228 337 L275 337 Z " />
<glyph glyph-name="four" unicode="4" horiz-adv-x="561" d="M28 244 L28 180 L361 180 L361 0 L412 0 L412 180 L526 180 L526 225 L412 225 L412 700 L351 700 L28 244 Z M359 626 L361 626 L361 225 L77 225 L77 227 L359 626 Z " />
<glyph glyph-name="five" unicode="5" horiz-adv-x="543" d="M453 700 L99 700 L93 371 L128 353 C144 364 195 399 259 399 C372 399 444 323 444 220 C444 129 369 35 254 35 C173 35 114 75 84 136 L42 115 C80 38 154 -12 254 -12 C400 -12 497 106 497 220 C497 351 401 446 259 446 C209 446 168 429 147 417 C146 417 146 418 145 418 L150 654 L453 654 L453 700 Z " />
<glyph glyph-name="six" unicode="6" horiz-adv-x="575" d="M311 401 C407 401 476 326 476 222 C476 106 402 35 309 35 C198 35 122 136 110 278 C144 343 223 401 311 401 L311 401 Z M311 448 C230 448 156 407 112 352 L110 352 C123 501 199 665 364 665 C428 665 469 642 469 642 L492 683 C492 683 441 712 364 712 C148 712 56 492 56 317 C56 127 157 -12 309 -12 C431 -12 529 77 529 222 C529 354 438 448 311 448 L311 448 Z " />
<glyph glyph-name="seven" unicode="7" horiz-adv-x="457" d="M440 700 L25 700 L25 654 L391 654 L391 652 L90 0 L146 0 L440 638 L440 700 Z " />
<glyph glyph-name="eight" unicode="8" horiz-adv-x="558" d="M491 173 C491 278 422 321 344 357 L344 359 C415 391 473 434 473 533 C473 654 394 712 285 712 C180 712 90 644 90 533 C90 439 147 397 215 364 L215 362 C136 328 68 283 68 173 C68 41 179 -12 285 -12 C387 -12 491 53 491 173 L491 173 Z M439 173 C439 83 361 35 285 35 C205 35 121 74 121 173 C121 272 195 305 274 335 C358 301 439 268 439 173 L439 173 Z M143 533 C143 616 208 665 285 665 C364 665 420 622 420 533 C420 445 356 413 284 384 C211 413 143 445 143 533 L143 533 Z " />
<glyph glyph-name="nine" unicode="9" horiz-adv-x="574" d="M263 299 C167 299 98 374 98 478 C98 594 172 665 265 665 C376 665 452 564 464 422 C430 357 351 299 263 299 L263 299 Z M263 252 C344 252 418 293 462 348 L464 348 C451 199 375 35 210 35 C146 35 105 58 105 58 L82 17 C82 17 133 -12 210 -12 C426 -12 518 208 518 383 C518 573 417 712 265 712 C143 712 45 623 45 478 C45 346 136 252 263 252 L263 252 Z " />
<glyph glyph-name="colon" unicode="&#x3a;" horiz-adv-x="196" d="M72 0 L124 0 L124 85 L72 85 L72 0 Z M72 415 L124 415 L124 500 L72 500 L72 415 Z " />
<glyph glyph-name="semicolon" unicode="&#x3b;" horiz-adv-x="259" d="M106 415 L158 415 L158 500 L106 500 L106 415 Z M119 95 L173 95 L99 -140 L48 -140 L119 95 Z " />
<glyph glyph-name="less" unicode="&#x3c;" horiz-adv-x="660" d="M584 102 L96 323 L96 325 L584 545 L584 597 L39 350 L39 298 L584 50 L584 102 Z " />
<glyph glyph-name="equal" unicode="&#x3d;" horiz-adv-x="679" d="M612 221 L612 267 L67 267 L67 221 L612 221 Z M612 381 L612 427 L67 427 L67 381 L612 381 Z " />
<glyph glyph-name="greater" unicode="&#x3e;" horiz-adv-x="660" d="M621 298 L621 350 L76 597 L76 545 L564 325 L564 323 L76 102 L76 50 L621 298 Z " />
<glyph glyph-name="question" unicode="&#x3f;" horiz-adv-x="477" d="M255 0 L255 85 L203 85 L203 0 L255 0 Z M86 539 C102 616 159 664 238 664 C314 664 376 619 376 541 C376 480 342 448 304 418 C233 362 203 327 203 236 L203 190 L255 190 L255 236 C255 307 280 336 337 381 C385 419 429 458 429 541 C429 651 344 712 238 712 C134 712 59 650 39 548 L86 539 Z " />
<glyph glyph-name="at" unicode="&#x40;" horiz-adv-x="816" d="M421 492 C465 492 493 453 503 427 C494 375 485 322 476 270 C460 245 423 210 367 210 C319 210 283 257 283 322 C283 408 339 492 421 492 L421 492 Z M701 138 C634 73 548 36 426 36 C237 36 107 156 107 347 C107 526 232 664 418 664 C585 664 708 594 708 398 C708 285 633 210 573 210 C541 210 524 230 527 254 L572 525 L520 525 L512 481 L510 481 C496 510 465 540 421 540 C306 540 230 432 230 322 C230 229 285 162 373 162 C428 162 467 192 487 219 L489 219 C495 193 519 162 573 162 C647 162 761 257 761 398 C761 629 616 712 418 712 C200 712 54 553 54 347 C54 127 205 -12 426 -12 C562 -12 658 31 734 104 L701 138 Z " />
<glyph glyph-name="A" unicode="A" horiz-adv-x="678" d="M341 637 L509 240 L167 240 L339 637 L341 637 Z M147 194 L530 194 L612 0 L667 0 L367 700 L312 700 L9 0 L64 0 L147 194 Z " />
<glyph glyph-name="B" unicode="B" horiz-adv-x="622" d="M395 377 C470 391 526 448 526 533 C526 654 415 700 281 700 L101 700 L101 0 L294 0 C444 0 575 52 575 185 C575 286 509 357 395 375 L395 377 Z M153 347 L312 347 C442 347 522 291 522 185 C522 86 416 46 294 46 L153 46 L153 347 Z M153 654 L281 654 C386 654 473 620 473 533 C473 430 383 393 310 393 L153 393 L153 654 Z " />
<glyph glyph-name="C" unicode="C" horiz-adv-x="693" d="M626 143 C588 85 513 36 408 36 C231 36 102 169 102 350 C102 531 234 664 408 664 C494 664 575 630 614 575 L653 603 C606 670 509 712 408 712 C203 712 49 559 49 350 C49 141 200 -12 408 -12 C532 -12 620 47 666 116 L626 143 Z " />
<glyph glyph-name="D" unicode="D" horiz-adv-x="752" d="M101 0 L334 0 C509 0 702 117 702 351 C702 584 509 700 334 700 L101 700 L101 0 Z M153 654 L334 654 C484 654 649 552 649 351 C649 149 484 46 334 46 L153 46 L153 654 Z " />
<glyph glyph-name="E" unicode="E" horiz-adv-x="591" d="M153 46 L153 341 L511 341 L511 387 L153 387 L153 654 L535 654 L535 700 L101 700 L101 0 L547 0 L547 46 L153 46 Z " />
<glyph glyph-name="F" unicode="F" horiz-adv-x="558" d="M153 654 L523 654 L523 700 L101 700 L101 0 L153 0 L153 339 L498 339 L498 385 L153 385 L153 654 Z " />
<glyph glyph-name="G" unicode="G" horiz-adv-x="729" d="M657 620 C599 677 517 712 408 712 C203 712 49 559 49 350 C49 141 200 -12 408 -12 C497 -12 583 2 665 31 L665 349 L613 349 L613 65 C547 45 478 36 408 36 C231 36 102 169 102 350 C102 531 234 664 408 664 C503 664 574 634 623 586 L657 620 Z " />
<glyph glyph-name="H" unicode="H" horiz-adv-x="726" d="M153 0 L153 340 L573 340 L573 0 L625 0 L625 700 L573 700 L573 386 L153 386 L153 700 L101 700 L101 0 L153 0 Z " />
<glyph glyph-name="I" unicode="I" horiz-adv-x="254" d="M153 0 L153 700 L101 700 L101 0 L153 0 Z " />
<glyph glyph-name="J" unicode="J" horiz-adv-x="485" d="M20 129 C37 47 106 -12 207 -12 C359 -12 392 116 392 206 L392 700 L340 700 L340 206 C340 135 316 36 207 36 C131 36 79 80 66 139 L20 129 Z " />
<glyph glyph-name="K" unicode="K" horiz-adv-x="615" d="M153 0 L153 255 L284 392 L552 0 L613 0 L321 429 L581 700 L514 700 L155 325 L153 325 L153 700 L101 700 L101 0 L153 0 Z " />
<glyph glyph-name="L" unicode="L" horiz-adv-x="520" d="M101 0 L499 0 L499 46 L153 46 L153 700 L101 700 L101 0 Z " />
<glyph glyph-name="M" unicode="M" horiz-adv-x="865" d="M712 0 L764 0 L764 700 L697 700 L434 65 L432 65 L169 700 L101 700 L101 0 L153 0 L153 606 L155 606 L405 0 L461 0 L710 606 L712 606 L712 0 Z " />
<glyph glyph-name="N" unicode="N" horiz-adv-x="759" d="M604 61 L171 700 L101 700 L101 0 L153 0 L153 638 L155 638 L587 0 L658 0 L658 700 L606 700 L606 61 L604 61 Z " />
<glyph glyph-name="O" unicode="O" horiz-adv-x="816" d="M767 350 C767 559 613 712 408 712 C203 712 49 559 49 350 C49 141 203 -12 408 -12 C613 -12 767 141 767 350 L767 350 Z M714 350 C714 169 582 36 408 36 C234 36 102 169 102 350 C102 531 234 664 408 664 C582 664 714 531 714 350 L714 350 Z " />
<glyph glyph-name="P" unicode="P" horiz-adv-x="560" d="M277 654 C400 654 472 610 472 518 C472 429 403 380 277 380 L153 380 L153 654 L277 654 Z M153 0 L153 334 L277 334 C438 334 525 398 525 518 C525 642 433 700 277 700 L101 700 L101 0 L153 0 Z " />
<glyph glyph-name="Q" unicode="Q" horiz-adv-x="816" d="M399 -12 C435 -139 519 -217 629 -217 L629 -172 C547 -172 483 -109 451 -8 C634 11 767 156 767 350 C767 559 613 712 408 712 C203 712 49 559 49 350 C49 143 198 -8 399 -12 L399 -12 Z M714 350 C714 169 582 36 408 36 C234 36 102 169 102 350 C102 531 234 664 408 664 C582 664 714 531 714 350 L714 350 Z " />
<glyph glyph-name="R" unicode="R" horiz-adv-x="602" d="M519 0 L577 0 L374 343 C480 363 536 423 536 519 C536 643 444 700 288 700 L101 700 L101 0 L153 0 L153 336 L288 336 C299 336 310 336 319 337 L519 0 Z M153 654 L288 654 C411 654 483 610 483 519 C483 430 414 382 288 382 L153 382 L153 654 Z " />
<glyph glyph-name="S" unicode="S" horiz-adv-x="524" d="M462 644 C462 644 397 712 276 712 C147 712 58 634 58 538 C58 421 157 380 252 334 C334 294 424 257 424 161 C424 94 364 36 266 36 C145 36 80 110 80 110 L44 78 C44 78 123 -12 266 -12 C397 -12 478 69 478 161 C478 289 376 328 276 377 C192 417 111 448 111 538 C111 607 178 664 276 664 C377 664 428 611 428 611 L462 644 Z " />
<glyph glyph-name="T" unicode="T" horiz-adv-x="580" d="M20 654 L264 654 L264 0 L316 0 L316 654 L560 654 L560 700 L20 700 L20 654 Z " />
<glyph glyph-name="U" unicode="U" horiz-adv-x="704" d="M92 700 L92 265 C92 149 144 -12 352 -12 C560 -12 612 149 612 265 L612 700 L560 700 L560 265 C560 169 517 36 352 36 C187 36 144 169 144 265 L144 700 L92 700 Z " />
<glyph glyph-name="V" unicode="V" horiz-adv-x="645" d="M26 700 L288 0 L357 0 L619 700 L564 700 L324 53 L322 53 L81 700 L26 700 Z " />
<glyph glyph-name="W" unicode="W" horiz-adv-x="973" d="M235 0 L304 0 L487 632 L489 632 L671 0 L740 0 L939 700 L885 700 L706 68 L704 68 L522 700 L454 700 L271 67 L269 67 L88 700 L34 700 L235 0 Z " />
<glyph glyph-name="X" unicode="X" horiz-adv-x="593" d="M524 0 L585 0 L328 365 L562 700 L501 700 L298 408 L296 408 L93 700 L31 700 L264 368 L9 0 L71 0 L294 325 L296 325 L524 0 Z " />
<glyph glyph-name="Y" unicode="Y" horiz-adv-x="640" d="M346 0 L346 296 L612 700 L552 700 L321 346 L319 346 L87 700 L28 700 L294 296 L294 0 L346 0 Z " />
<glyph glyph-name="Z" unicode="Z" horiz-adv-x="567" d="M41 654 L463 654 L463 652 L30 44 L30 0 L534 0 L534 46 L95 46 L95 48 L528 656 L528 700 L41 700 L41 654 Z " />
<glyph glyph-name="bracketleft" unicode="&#x5b;" horiz-adv-x="285" d="M154 678 L234 678 L234 724 L102 724 L102 -154 L234 -154 L234 -108 L154 -108 L154 678 Z " />
<glyph glyph-name="backslash" unicode="&#x5c;" horiz-adv-x="425" d="M91 708 L35 708 L334 -8 L390 -8 L91 708 Z " />
<glyph glyph-name="bracketright" unicode="&#x5d;" horiz-adv-x="285" d="M51 -108 L51 -154 L183 -154 L183 724 L51 724 L51 678 L131 678 L131 -108 L51 -108 Z " />
<glyph glyph-name="asciicircum" unicode="&#x5e;" horiz-adv-x="603" d="M104 272 L301 647 L303 647 L500 272 L557 272 L331 700 L273 700 L46 272 L104 272 Z " />
<glyph glyph-name="underscore" unicode="&#x5f;" horiz-adv-x="494" d="M0 -122 L494 -122 L494 -76 L0 -76 L0 -122 Z " />
<glyph glyph-name="grave" unicode="&#x60;" horiz-adv-x="279" d="M229 602 L114 744 L50 744 L170 602 L229 602 Z " />
<glyph glyph-name="a" unicode="a" horiz-adv-x="543" d="M230 34 C164 34 88 56 88 126 C88 230 237 250 405 253 L405 112 C359 70 300 34 230 34 L230 34 Z M512 47 C512 47 506 46 502 46 C478 46 456 62 456 105 L456 331 C456 452 369 512 262 512 C177 512 106 481 66 441 L99 408 C132 441 191 466 262 466 C340 466 405 421 405 331 L405 298 C210 295 36 269 36 126 C36 21 139 -12 230 -12 C305 -12 367 22 418 65 L420 65 C431 17 466 0 502 0 C513 0 519 1 520 2 L512 47 Z " />
<glyph glyph-name="b" unicode="b" horiz-adv-x="598" d="M81 0 L132 0 L132 59 L134 59 C175 15 231 -12 299 -12 C440 -12 555 100 555 250 C555 400 440 512 299 512 C231 512 175 485 134 440 L132 440 L132 730 L81 730 L81 0 Z M299 466 C411 466 503 374 503 250 C503 126 411 34 299 34 C230 34 169 67 132 125 L132 373 C169 430 230 466 299 466 L299 466 Z " />
<glyph glyph-name="c" unicode="c" horiz-adv-x="529" d="M496 426 C460 478 397 512 309 512 C163 512 44 414 44 250 C44 95 153 -12 315 -12 C436 -12 500 74 500 74 L463 102 C463 102 413 34 315 34 C184 34 96 123 96 250 C96 385 192 466 309 466 C381 466 430 440 458 400 L496 426 Z " />
<glyph glyph-name="d" unicode="d" horiz-adv-x="610" d="M479 71 C485 19 527 0 563 0 C574 0 580 1 582 2 C579 17 576 32 573 47 C573 47 567 46 563 46 C540 46 517 62 517 105 L517 730 L467 730 L467 440 L465 440 C423 485 367 512 299 512 C158 512 43 400 43 250 C43 100 158 -12 299 -12 C373 -12 435 20 477 71 L479 71 Z M299 466 C368 466 429 430 467 373 L467 125 C430 67 367 34 299 34 C187 34 95 126 95 250 C95 374 187 466 299 466 L299 466 Z " />
<glyph glyph-name="e" unicode="e" horiz-adv-x="575" d="M529 247 C529 247 532 281 532 300 C532 415 457 512 308 512 C162 512 43 414 43 250 C43 95 163 -12 325 -12 C445 -12 522 58 522 58 L491 92 C491 92 427 34 325 34 C196 34 99 118 95 247 L529 247 Z M308 466 C425 466 483 384 479 291 L99 291 C116 401 204 466 308 466 L308 466 Z " />
<glyph glyph-name="f" unicode="f" horiz-adv-x="252" d="M258 729 C246 731 227 734 213 734 C160 734 94 729 94 625 L94 500 L33 500 L33 455 L94 455 L94 0 L145 0 L145 455 L239 455 L239 500 L145 500 L145 625 C145 684 182 688 213 688 C225 688 241 686 251 684 L258 729 Z " />
<glyph glyph-name="g" unicode="g" horiz-adv-x="586" d="M454 500 L454 441 L452 441 C412 485 358 512 293 512 C156 512 44 403 44 256 C44 109 156 0 293 0 C357 0 412 27 452 71 L454 71 L454 13 C453 -114 348 -164 239 -164 C191 -164 149 -154 111 -136 L93 -179 C136 -199 184 -210 239 -210 C375 -210 505 -148 505 13 L505 500 L454 500 Z M293 46 C181 46 90 136 90 256 C90 376 181 466 293 466 C359 466 418 431 454 376 L454 138 C419 85 362 46 293 46 L293 46 Z " />
<glyph glyph-name="h" unicode="h" horiz-adv-x="611" d="M131 0 L131 368 C165 427 227 466 309 466 C427 466 487 402 487 306 L487 0 L537 0 L537 306 C537 430 462 512 309 512 C239 512 171 476 133 432 L131 432 L131 730 L80 730 L80 0 L131 0 Z " />
<glyph glyph-name="i" unicode="i" horiz-adv-x="219" d="M84 615 L135 615 L135 700 L84 700 L84 615 Z M84 0 L135 0 L135 500 L84 500 L84 0 Z " />
<glyph glyph-name="j" unicode="j" horiz-adv-x="219" d="M-14 -204 C81 -204 135 -195 135 -80 L135 500 L84 500 L84 -80 C84 -151 48 -158 -14 -158 L-14 -204 Z M84 615 L135 615 L135 700 L84 700 L84 615 Z " />
<glyph glyph-name="k" unicode="k" horiz-adv-x="513" d="M131 730 L80 730 L80 0 L131 0 L131 179 L231 268 L446 0 L507 0 L267 299 L497 500 L424 500 L133 242 L131 242 L131 730 Z " />
<glyph glyph-name="l" unicode="l" horiz-adv-x="222" d="M81 99 C81 26 120 0 162 0 C173 0 179 1 180 2 L172 47 C149 42 132 57 132 99 L132 730 L81 730 L81 99 Z " />
<glyph glyph-name="m" unicode="m" horiz-adv-x="887" d="M131 0 L131 377 C155 429 214 466 275 466 C361 466 420 425 420 363 L420 0 L471 0 L471 377 C492 431 554 466 607 466 C708 466 763 402 763 306 L763 0 L813 0 L813 306 C813 424 735 512 615 512 C550 512 479 471 449 417 L447 417 C423 476 366 512 275 512 C219 512 166 480 133 436 L131 436 L131 500 L80 500 L80 0 L131 0 Z " />
<glyph glyph-name="n" unicode="n" horiz-adv-x="612" d="M132 0 L132 368 C166 427 228 466 310 466 C428 466 488 402 488 306 L488 0 L538 0 L538 306 C538 430 463 512 310 512 C240 512 172 476 134 432 L132 432 L132 500 L81 500 L81 0 L132 0 Z " />
<glyph glyph-name="o" unicode="o" horiz-adv-x="618" d="M574 250 C574 400 464 512 308 512 C154 512 43 400 43 250 C43 100 154 -12 308 -12 C464 -12 574 100 574 250 L574 250 Z M522 250 C522 126 433 34 308 34 C185 34 95 126 95 250 C95 374 185 466 308 466 C433 466 522 374 522 250 L522 250 Z " />
<glyph glyph-name="p" unicode="p" horiz-adv-x="610" d="M130 429 C124 481 82 500 46 500 C35 500 29 499 28 498 L36 453 C36 453 42 454 46 454 C70 454 92 438 92 395 L92 -200 L143 -200 L143 60 L145 60 C187 15 243 -12 311 -12 C452 -12 567 100 567 250 C567 400 452 512 311 512 C236 512 175 480 132 429 L130 429 Z M311 34 C242 34 181 69 143 127 L143 375 C180 432 242 466 311 466 C423 466 515 374 515 250 C515 126 423 34 311 34 L311 34 Z " />
<glyph glyph-name="q" unicode="q" horiz-adv-x="598" d="M517 500 L467 500 L467 441 L465 441 C424 485 368 512 299 512 C158 512 43 400 43 250 C43 100 158 -12 299 -12 C367 -12 423 15 465 60 L467 60 L467 -200 L517 -200 L517 500 Z M299 34 C187 34 95 126 95 250 C95 374 187 466 299 466 C368 466 430 432 467 375 L467 127 C429 69 369 34 299 34 L299 34 Z " />
<glyph glyph-name="r" unicode="r" horiz-adv-x="336" d="M132 0 L132 370 C144 406 203 458 275 458 C293 458 306 457 319 453 L331 498 C314 503 296 504 275 504 C216 504 164 467 134 429 L132 429 L132 500 L81 500 L81 0 L132 0 Z " />
<glyph glyph-name="s" unicode="s" horiz-adv-x="436" d="M382 457 C382 457 330 512 230 512 C129 512 51 456 51 377 C51 286 130 259 211 232 C277 211 344 189 344 121 C344 74 300 34 222 34 C124 34 73 92 73 92 L39 61 C39 61 104 -12 222 -12 C335 -12 396 48 396 121 C396 216 308 249 227 276 C166 296 103 318 103 377 C103 429 159 466 230 466 C309 466 348 425 348 425 L382 457 Z " />
<glyph glyph-name="t" unicode="t" horiz-adv-x="281" d="M101 455 L101 105 C101 1 167 -4 220 -4 C234 -4 253 -1 265 1 L258 46 C248 44 232 42 220 42 C189 42 152 46 152 105 L152 455 L249 455 L249 500 L152 500 L152 676 L101 676 L101 500 L18 500 L18 455 L101 455 Z " />
<glyph glyph-name="u" unicode="u" horiz-adv-x="612" d="M481 500 L481 132 C446 73 384 34 302 34 C184 34 125 98 125 194 L125 500 L74 500 L74 194 C74 70 149 -12 302 -12 C372 -12 441 24 479 68 L481 68 L481 0 L531 0 L531 500 L481 500 Z " />
<glyph glyph-name="v" unicode="v" horiz-adv-x="551" d="M276 59 L274 59 L78 500 L23 500 L248 0 L302 0 L530 500 L475 500 L276 59 Z " />
<glyph glyph-name="w" unicode="w" horiz-adv-x="806" d="M586 74 L584 74 L428 500 L374 500 L221 77 L219 77 L82 500 L30 500 L193 0 L246 0 L401 429 L403 429 L560 0 L614 0 L775 500 L722 500 L586 74 Z " />
<glyph glyph-name="x" unicode="x" horiz-adv-x="483" d="M408 0 L468 0 L271 259 L454 500 L394 500 L242 298 L240 298 L89 500 L29 500 L209 262 L15 0 L75 0 L239 223 L241 223 L408 0 Z " />
<glyph glyph-name="y" unicode="y" horiz-adv-x="551" d="M23 500 L248 2 L213 -75 C184 -137 157 -159 97 -159 C79 -159 60 -157 43 -154 L33 -197 C54 -202 76 -204 97 -204 C190 -204 223 -172 259 -93 L529 500 L475 500 L276 61 L274 61 L77 500 L23 500 Z " />
<glyph glyph-name="z" unicode="z" horiz-adv-x="467" d="M95 47 L424 461 L424 500 L44 500 L44 455 L358 455 L358 453 L29 39 L29 0 L435 0 L435 45 L95 45 L95 47 Z " />
<glyph glyph-name="braceleft" unicode="&#x7b;" horiz-adv-x="275" d="M220 -108 C180 -108 142 -86 142 -21 L142 167 C142 223 131 270 102 284 L102 286 C131 299 142 347 142 402 L142 590 C142 655 180 678 220 678 L232 678 L232 724 L220 724 C153 724 90 691 90 590 L90 402 C90 332 81 308 44 308 L44 262 C81 262 90 238 90 167 L90 -21 C90 -122 153 -154 220 -154 L232 -154 L232 -108 L220 -108 Z " />
<glyph glyph-name="bar" unicode="&#x7c;" horiz-adv-x="252" d="M100 -247 L152 -247 L152 742 L100 742 L100 -247 Z " />
<glyph glyph-name="braceright" unicode="&#x7d;" horiz-adv-x="275" d="M43 -108 L43 -154 L55 -154 C122 -154 184 -122 184 -21 L184 167 C184 238 193 262 231 262 L231 308 C193 308 184 332 184 402 L184 590 C184 691 122 724 55 724 L43 724 L43 678 L55 678 C95 678 132 655 132 590 L132 402 C132 347 144 299 172 286 L172 284 C144 270 132 223 132 167 L132 -21 C132 -86 95 -108 55 -108 L43 -108 Z " />
<glyph glyph-name="asciitilde" unicode="&#x7e;" horiz-adv-x="676" d="M338 296 C374 272 418 251 462 251 C549 251 577 312 601 393 L551 393 C534 338 511 299 462 299 C434 299 397 317 366 337 C317 370 270 396 216 396 C132 396 103 334 80 254 L130 254 C147 308 169 348 216 348 C254 348 295 325 338 296 L338 296 Z " />
<glyph glyph-name="nbspace" unicode="&#xa0;" horiz-adv-x="278" d="" />
<glyph glyph-name="exclamdown" unicode="&#xa1;" horiz-adv-x="242" d="M147 -200 L147 310 L95 310 L95 -200 L147 -200 Z M147 415 L147 500 L95 500 L95 415 L147 415 Z " />
<glyph glyph-name="cent" unicode="&#xa2;" horiz-adv-x="562" d="M472 102 C472 102 422 34 324 34 C193 34 105 123 105 250 C105 385 201 466 318 466 C390 466 439 440 467 400 L505 426 C470 475 412 509 328 511 L328 595 L278 595 L278 509 C151 492 53 398 53 250 C53 110 142 10 278 -8 L278 -95 L328 -95 L328 -12 C447 -10 508 73 509 74 L472 102 Z " />
<glyph glyph-name="sterling" unicode="&#xa3;" horiz-adv-x="537" d="M450 676 C419 694 380 712 335 712 C229 712 150 629 149 509 C149 465 148 420 148 377 L59 377 L59 331 L148 331 C141 215 98 76 53 17 L81 -13 C124 10 155 17 189 17 C235 17 281 -12 345 -12 C402 -12 445 3 500 48 L470 85 C425 48 390 36 345 36 C275 42 242 66 190 66 C171 66 150 62 131 57 L129 58 C163 132 194 238 199 331 L376 331 L376 377 L200 377 C200 420 201 465 201 509 C201 601 259 664 335 664 C370 664 402 649 426 635 L450 676 Z " />
<glyph glyph-name="currency" unicode="&#xa4;" horiz-adv-x="714" d="M65 48 L101 16 L200 115 C240 80 294 59 358 59 C421 59 474 79 514 115 L614 17 L650 49 L548 150 C580 191 598 246 598 306 C598 365 579 420 546 461 L644 559 L608 591 L513 496 C473 530 420 550 358 550 C294 550 241 529 200 495 L107 592 L71 560 L168 459 C136 418 118 364 118 306 C118 247 135 192 167 150 L65 48 Z M358 502 C472 502 544 414 544 306 C544 196 472 107 358 107 C244 107 171 196 171 306 C171 414 244 502 358 502 L358 502 Z " />
<glyph glyph-name="yen" unicode="&#xa5;" horiz-adv-x="649" d="M141 270 L299 270 L299 173 L141 173 L141 127 L299 127 L299 0 L351 0 L351 127 L504 127 L504 173 L351 173 L351 270 L504 270 L504 317 L364 317 L617 700 L557 700 L326 346 L324 346 L92 700 L33 700 L285 317 L141 317 L141 270 Z " />
<glyph glyph-name="brokenbar" unicode="&#xa6;" horiz-adv-x="258" d="M103 321 L155 321 L155 667 L103 667 L103 321 Z M103 -173 L155 -173 L155 173 L103 173 L103 -173 Z " />
<glyph glyph-name="section" unicode="&#xa7;" horiz-adv-x="492" d="M425 658 C425 658 370 711 269 712 C161 713 83 649 83 572 C83 519 115 483 156 454 L156 452 C98 428 62 381 62 331 C62 239 142 199 225 158 C296 123 367 88 367 17 C367 -28 319 -75 240 -75 C140 -75 87 -18 87 -18 L52 -51 C52 -51 119 -123 240 -123 C351 -123 421 -52 421 17 C421 74 387 112 344 143 L344 145 C402 169 437 216 437 264 C437 360 352 402 269 444 C202 477 136 510 136 572 C136 620 190 664 269 664 C349 664 391 624 391 624 L425 658 Z M245 402 C312 368 384 333 384 264 C384 227 350 188 293 177 C279 185 265 192 250 200 C182 233 115 268 115 331 C115 371 151 409 208 420 C220 414 232 407 245 402 L245 402 Z " />
<glyph glyph-name="dieresis" unicode="&#xa8;" horiz-adv-x="342" d="M50 615 L102 615 L102 700 L50 700 L50 615 Z M240 615 L292 615 L292 700 L240 700 L240 615 Z " />
<glyph glyph-name="copyright" unicode="&#xa9;" horiz-adv-x="842" d="M420 712 C195 712 54 550 54 351 C54 150 195 -12 420 -12 C647 -12 788 150 788 351 C788 550 647 712 420 712 L420 712 Z M420 664 C614 664 735 524 735 351 C735 176 614 36 420 36 C228 36 107 176 107 351 C107 524 228 664 420 664 L420 664 Z M550 239 C528 208 489 182 432 182 C337 182 268 255 268 353 C268 452 339 525 432 525 C479 525 521 507 542 479 L581 507 C552 547 494 573 432 573 C308 573 215 480 215 353 C215 227 306 134 432 134 C507 134 560 170 589 211 L550 239 Z " />
<glyph glyph-name="ordfeminine" unicode="&#xaa;" horiz-adv-x="394" d="M110 640 C125 655 153 666 186 666 C217 666 244 647 244 611 L244 598 C145 595 60 578 60 496 C60 436 118 419 168 419 C209 419 239 438 258 463 L260 463 C266 436 286 426 325 426 L331 426 L331 471 L325 471 C304 471 295 477 295 494 L295 611 C295 678 246 712 186 712 C139 712 99 695 77 672 L110 640 Z M168 465 C142 465 112 473 112 502 C112 542 173 552 244 554 L244 497 C223 479 196 465 168 465 L168 465 Z " />
<glyph glyph-name="guillemotleft" unicode="&#xab;" horiz-adv-x="504" d="M443 51 L309 255 L444 462 L385 462 L250 256 L384 51 L443 51 Z M248 51 L114 255 L249 462 L190 462 L55 256 L189 51 L248 51 Z " />
<glyph glyph-name="logicalnot" unicode="&#xac;" horiz-adv-x="658" d="M576 423 L63 423 L63 377 L524 377 L524 139 L576 139 L576 423 Z " />
<glyph glyph-name="uni00AD" unicode="&#xad;" horiz-adv-x="350" d="M55 237 L295 237 L295 283 L55 283 L55 237 Z " />
<glyph glyph-name="registered" unicode="&#xae;" horiz-adv-x="842" d="M420 712 C195 712 54 550 54 351 C54 150 195 -12 420 -12 C647 -12 788 150 788 351 C788 550 647 712 420 712 L420 712 Z M420 664 C614 664 735 524 735 351 C735 176 614 36 420 36 C228 36 107 176 107 351 C107 524 228 664 420 664 L420 664 Z M286 141 L338 141 L338 339 C407 339 417 339 421 339 L539 141 L597 141 L475 347 C531 361 561 397 561 454 C561 531 505 566 411 566 L286 566 L286 141 Z M338 520 L411 520 C472 520 508 498 508 454 C508 410 475 385 411 385 L338 385 L338 520 Z " />
<glyph glyph-name="macron" unicode="&#xaf;" horiz-adv-x="367" d="M50 639 L317 639 L317 685 L50 685 L50 639 Z " />
<glyph glyph-name="degree" unicode="&#xb0;" horiz-adv-x="388" d="M332 574 C332 654 274 712 194 712 C115 712 56 654 56 574 C56 495 115 436 194 436 C274 436 332 495 332 574 L332 574 Z M279 574 C279 522 243 483 194 483 C146 483 109 522 109 574 C109 626 146 665 194 665 C243 665 279 626 279 574 L279 574 Z " />
<glyph glyph-name="plusminus" unicode="&#xb1;" horiz-adv-x="715" d="M85 380 L332 380 L332 207 L384 207 L384 380 L630 380 L630 426 L384 426 L384 602 L332 602 L332 426 L85 426 L85 380 Z M85 28 L630 28 L630 74 L85 74 L85 28 Z " />
<glyph glyph-name="twosuperior" unicode="&#xb2;" horiz-adv-x="428" d="M123 339 C123 440 352 476 352 595 C352 653 300 712 212 712 C116 712 75 632 75 632 C89 625 103 618 117 611 C117 611 144 665 212 665 C267 665 299 630 299 595 C299 511 70 466 70 339 L70 287 L352 287 L352 333 L123 333 L123 339 Z " />
<glyph glyph-name="threesuperior" unicode="&#xb3;" horiz-adv-x="407" d="M169 522 L169 476 L206 476 C240 476 293 454 293 401 C293 346 256 322 196 322 C127 322 102 370 96 379 L55 358 C64 342 99 275 196 275 C287 275 346 315 346 401 C346 456 305 490 268 500 L268 502 C301 512 334 543 334 594 C334 652 291 711 199 711 C113 711 80 659 71 645 L111 622 C116 630 137 664 199 664 C256 664 282 630 282 594 C282 548 241 522 206 522 L169 522 Z " />
<glyph glyph-name="acute" unicode="&#xb4;" horiz-adv-x="279" d="M229 744 L166 744 L50 602 L110 602 L229 744 Z " />
<glyph glyph-name="mu" unicode="&#xb5;" horiz-adv-x="657" d="M97 500 L97 -200 L148 -200 L148 65 L150 65 C178 16 238 -12 325 -12 C395 -12 464 24 502 68 L504 68 L504 0 L554 0 L554 500 L504 500 L504 132 C469 73 407 34 325 34 C208 34 148 97 148 191 L148 500 L97 500 Z " />
<glyph glyph-name="paragraph" unicode="&#xb6;" horiz-adv-x="621" d="M260 700 C121 701 34 625 34 496 C34 380 121 312 260 312 L260 -125 L312 -125 L312 654 L454 654 L454 -125 L506 -125 L506 700 L260 700 Z " />
<glyph glyph-name="periodcentered" unicode="&#xb7;" horiz-adv-x="184" d="M66 292 L118 292 L118 377 L66 377 L66 292 Z " />
<glyph glyph-name="cedilla" unicode="&#xb8;" horiz-adv-x="302" d="M131 0 L71 -89 L100 -118 C116 -108 132 -103 152 -103 C174 -103 200 -112 200 -133 C200 -158 170 -166 145 -166 C115 -166 87 -159 74 -151 L50 -191 C68 -202 107 -212 145 -212 C196 -212 252 -192 252 -135 C252 -84 202 -68 167 -68 C152 -68 139 -72 130 -76 L128 -75 L188 0 L131 0 Z " />
<glyph glyph-name="onesuperior" unicode="&#xb9;" horiz-adv-x="256" d="M68 603 L122 647 L124 647 L124 287 L175 287 L175 700 L110 700 L36 639 L68 603 Z " />
<glyph glyph-name="ordmasculine" unicode="&#xba;" horiz-adv-x="409" d="M353 565 C353 649 291 712 204 712 C118 712 56 649 56 565 C56 482 118 419 204 419 C291 419 353 482 353 565 L353 565 Z M300 565 C300 509 260 467 204 467 C149 467 109 509 109 565 C109 621 149 664 204 664 C260 664 300 621 300 565 L300 565 Z " />
<glyph glyph-name="guillemotright" unicode="&#xbb;" horiz-adv-x="504" d="M449 256 L314 462 L255 462 L390 255 L256 51 L315 51 L449 256 Z M254 256 L119 462 L60 462 L195 255 L61 51 L120 51 L254 256 Z " />
<glyph glyph-name="onequarter" unicode="&#xbc;" horiz-adv-x="766" d="M421 97 L615 97 L615 0 L667 0 L667 97 L724 97 L724 143 L667 143 L667 422 L608 422 L421 158 L421 97 Z M615 143 L474 143 L474 145 L613 342 L615 342 L615 143 Z M560 726 L109 -17 L167 -17 L618 726 L560 726 Z M66 611 L120 655 L122 655 L122 286 L173 286 L173 708 L108 708 L34 647 L66 611 Z " />
<glyph glyph-name="onehalf" unicode="&#xbd;" horiz-adv-x="815" d="M559 726 L108 -17 L166 -17 L617 726 L559 726 Z M481 0 L765 0 L765 46 L533 46 L533 52 C533 156 765 193 765 312 C765 370 713 429 624 429 C527 429 486 349 486 349 L528 327 C528 327 556 382 624 382 C680 382 712 347 712 312 C712 229 481 180 481 52 L481 0 Z M65 611 L119 655 L121 655 L121 286 L172 286 L172 708 L107 708 L33 647 L65 611 Z " />
<glyph glyph-name="threequarters" unicode="&#xbe;" horiz-adv-x="840" d="M499 97 L693 97 L693 0 L745 0 L745 97 L802 97 L802 143 L745 143 L745 422 L686 422 L499 158 L499 97 Z M693 143 L553 143 L553 145 L691 342 L693 342 L693 143 Z M638 726 L187 -17 L245 -17 L696 726 L638 726 Z M154 530 L154 485 L191 485 C224 485 278 461 278 410 C278 356 241 331 181 331 C112 331 87 379 81 388 L40 367 C49 351 84 284 181 284 C272 284 330 325 330 410 C330 465 289 498 253 508 L253 510 C285 521 319 552 319 603 C319 660 276 720 183 720 C98 720 65 668 56 654 L96 631 C101 638 122 673 183 673 C240 673 266 638 266 603 C266 558 226 530 191 530 L154 530 Z " />
<glyph glyph-name="questiondown" unicode="&#xbf;" horiz-adv-x="468" d="M217 500 L217 415 L269 415 L269 500 L217 500 Z M385 -37 C370 -114 312 -162 234 -162 C157 -162 95 -117 95 -39 C95 22 129 54 168 84 C238 140 269 175 269 266 L269 310 L217 310 L217 266 C217 195 191 166 135 121 C86 83 42 44 42 -39 C42 -149 127 -210 234 -210 C337 -210 412 -148 432 -46 L385 -37 Z " />
<glyph glyph-name="Agrave" unicode="&#xc0;" horiz-adv-x="678" d="M367 700 L312 700 L9 0 L64 0 L147 194 L530 194 L612 0 L667 0 L367 700 Z M509 240 L167 240 L339 637 L341 637 L509 240 Z M189 899 L309 757 L369 757 L253 899 L189 899 Z " />
<glyph glyph-name="Aacute" unicode="&#xc1;" horiz-adv-x="678" d="M367 700 L312 700 L9 0 L64 0 L147 194 L530 194 L612 0 L667 0 L367 700 Z M509 240 L167 240 L339 637 L341 637 L509 240 Z M424 899 L308 757 L368 757 L487 899 L424 899 Z " />
<glyph glyph-name="Acircumflex" unicode="&#xc2;" horiz-adv-x="678" d="M367 700 L312 700 L9 0 L64 0 L147 194 L530 194 L612 0 L667 0 L367 700 Z M509 240 L167 240 L339 637 L341 637 L509 240 Z M479 758 L366 904 L309 904 L196 758 L258 758 L337 860 L339 860 L418 758 L479 758 Z " />
<glyph glyph-name="Atilde" unicode="&#xc3;" horiz-adv-x="678" d="M367 700 L312 700 L9 0 L64 0 L147 194 L530 194 L612 0 L667 0 L367 700 Z M509 240 L167 240 L339 637 L341 637 L509 240 Z M229 778 C237 806 253 825 271 825 C292 825 314 813 336 798 C359 785 386 772 412 772 C456 772 488 804 501 865 L452 865 C444 837 429 820 410 820 C396 820 376 831 360 840 C333 857 301 873 270 873 C227 873 194 839 181 778 L229 778 Z " />
<glyph glyph-name="Adieresis" unicode="&#xc4;" horiz-adv-x="678" d="M367 700 L312 700 L9 0 L64 0 L147 194 L530 194 L612 0 L667 0 L367 700 Z M509 240 L167 240 L339 637 L341 637 L509 240 Z M219 800 L271 800 L271 885 L219 885 L219 800 Z M409 800 L461 800 L461 885 L409 885 L409 800 Z " />
<glyph glyph-name="Aring" unicode="&#xc5;" horiz-adv-x="678" d="M367 700 L312 700 L9 0 L64 0 L147 194 L530 194 L612 0 L667 0 L367 700 Z M509 240 L167 240 L339 637 L341 637 L509 240 Z M435 842 C435 895 391 936 340 936 C288 936 245 895 245 842 C245 788 288 748 340 748 C391 748 435 788 435 842 L435 842 Z M389 842 C389 814 366 794 340 794 C312 794 290 814 290 842 C290 869 312 890 340 890 C366 890 389 869 389 842 L389 842 Z " />
<glyph glyph-name="AE" unicode="&#xc6;" horiz-adv-x="976" d="M-1 0 L59 0 L187 196 L496 196 L496 0 L932 0 L932 46 L548 46 L548 341 L896 341 L896 387 L548 387 L548 654 L920 654 L920 700 L455 700 L-1 0 Z M485 654 L496 654 L496 242 L217 242 L485 654 Z " />
<glyph glyph-name="Ccedilla" unicode="&#xc7;" horiz-adv-x="693" d="M626 143 C588 85 513 36 408 36 C231 36 102 169 102 350 C102 531 234 664 408 664 C494 664 575 630 614 575 L653 603 C606 670 509 712 408 712 C203 712 49 559 49 350 C49 157 177 12 360 -9 L307 -89 L336 -118 C352 -108 368 -103 388 -103 C410 -103 436 -112 436 -133 C436 -158 406 -166 381 -166 C351 -166 323 -159 310 -151 L286 -191 C304 -202 343 -212 381 -212 C432 -212 488 -192 488 -135 C488 -84 438 -68 403 -68 C388 -68 375 -72 366 -76 L364 -75 L414 -11 C531 -9 617 44 666 116 L626 143 Z " />
<glyph glyph-name="Egrave" unicode="&#xc8;" horiz-adv-x="591" d="M153 46 L153 341 L511 341 L511 387 L153 387 L153 654 L535 654 L535 700 L101 700 L101 0 L547 0 L547 46 L153 46 Z M318 757 L378 757 L262 899 L198 899 L318 757 Z " />
<glyph glyph-name="Eacute" unicode="&#xc9;" horiz-adv-x="591" d="M153 46 L153 341 L511 341 L511 387 L153 387 L153 654 L535 654 L535 700 L101 700 L101 0 L547 0 L547 46 L153 46 Z M448 899 L385 899 L269 757 L329 757 L448 899 Z " />
<glyph glyph-name="Ecircumflex" unicode="&#xca;" horiz-adv-x="591" d="M153 46 L153 341 L511 341 L511 387 L153 387 L153 654 L535 654 L535 700 L101 700 L101 0 L547 0 L547 46 L153 46 Z M180 758 L242 758 L321 860 L323 860 L402 758 L463 758 L350 904 L293 904 L180 758 Z " />
<glyph glyph-name="Edieresis" unicode="&#xcb;" horiz-adv-x="591" d="M153 46 L153 341 L511 341 L511 387 L153 387 L153 654 L535 654 L535 700 L101 700 L101 0 L547 0 L547 46 L153 46 Z M201 800 L253 800 L253 885 L201 885 L201 800 Z M391 800 L443 800 L443 885 L391 885 L391 800 Z " />
<glyph glyph-name="Igrave" unicode="&#xcc;" horiz-adv-x="255" d="M102 0 L154 0 L154 700 L102 700 L102 0 Z M98 757 L157 757 L42 899 L-22 899 L98 757 Z " />
<glyph glyph-name="Iacute" unicode="&#xcd;" horiz-adv-x="255" d="M102 0 L154 0 L154 700 L102 700 L102 0 Z M98 757 L158 757 L277 899 L214 899 L98 757 Z " />
<glyph glyph-name="Icircumflex" unicode="&#xce;" horiz-adv-x="255" d="M102 0 L154 0 L154 700 L102 700 L102 0 Z M-14 758 L48 758 L127 860 L129 860 L208 758 L269 758 L156 904 L99 904 L-14 758 Z " />
<glyph glyph-name="Idieresis" unicode="&#xcf;" horiz-adv-x="255" d="M101 0 L153 0 L153 700 L101 700 L101 0 Z M6 800 L58 800 L58 885 L6 885 L6 800 Z M196 800 L248 800 L248 885 L196 885 L196 800 Z " />
<glyph glyph-name="Eth" unicode="&#xd0;" horiz-adv-x="760" d="M37 346 L109 346 L109 0 L342 0 C517 0 710 117 710 351 C710 584 517 700 342 700 L109 700 L109 392 L37 392 L37 346 Z M161 654 L342 654 C492 654 657 552 657 351 C657 149 492 46 342 46 L161 46 L161 346 L435 346 L435 392 L161 392 L161 654 Z " />
<glyph glyph-name="Ntilde" unicode="&#xd1;" horiz-adv-x="758" d="M270 778 C278 806 293 825 312 825 C333 825 355 813 377 798 C399 785 427 772 452 772 C497 772 528 804 542 865 L493 865 C485 837 470 820 451 820 C437 820 416 831 401 840 C374 857 342 873 311 873 C268 873 234 839 221 778 L270 778 Z M171 700 L101 700 L101 0 L153 0 L153 638 L155 638 L587 0 L657 0 L657 700 L605 700 L605 61 L603 61 L171 700 Z " />
<glyph glyph-name="Ograve" unicode="&#xd2;" horiz-adv-x="816" d="M767 350 C767 559 613 712 408 712 C203 712 49 559 49 350 C49 141 203 -12 408 -12 C613 -12 767 141 767 350 L767 350 Z M714 350 C714 169 582 36 408 36 C234 36 102 169 102 350 C102 531 234 664 408 664 C582 664 714 531 714 350 L714 350 Z M419 757 L478 757 L363 899 L299 899 L419 757 Z " />
<glyph glyph-name="Oacute" unicode="&#xd3;" horiz-adv-x="816" d="M767 350 C767 559 613 712 408 712 C203 712 49 559 49 350 C49 141 203 -12 408 -12 C613 -12 767 141 767 350 L767 350 Z M714 350 C714 169 582 36 408 36 C234 36 102 169 102 350 C102 531 234 664 408 664 C582 664 714 531 714 350 L714 350 Z M534 899 L470 899 L355 757 L414 757 L534 899 Z " />
<glyph glyph-name="Ocircumflex" unicode="&#xd4;" horiz-adv-x="816" d="M767 350 C767 559 613 712 408 712 C203 712 49 559 49 350 C49 141 203 -12 408 -12 C613 -12 767 141 767 350 L767 350 Z M714 350 C714 169 582 36 408 36 C234 36 102 169 102 350 C102 531 234 664 408 664 C582 664 714 531 714 350 L714 350 Z M266 758 L328 758 L407 860 L409 860 L488 758 L550 758 L436 904 L379 904 L266 758 Z " />
<glyph glyph-name="Otilde" unicode="&#xd5;" horiz-adv-x="816" d="M767 350 C767 559 613 712 408 712 C203 712 49 559 49 350 C49 141 203 -12 408 -12 C613 -12 767 141 767 350 L767 350 Z M714 350 C714 169 582 36 408 36 C234 36 102 169 102 350 C102 531 234 664 408 664 C582 664 714 531 714 350 L714 350 Z M299 778 C306 806 322 825 341 825 C362 825 383 813 406 798 C428 785 456 772 481 772 C526 772 557 804 571 865 L522 865 C514 837 499 820 480 820 C465 820 445 831 430 840 C402 857 371 873 339 873 C297 873 263 839 250 778 L299 778 Z " />
<glyph glyph-name="Odieresis" unicode="&#xd6;" horiz-adv-x="816" d="M767 350 C767 559 613 712 408 712 C203 712 49 559 49 350 C49 141 203 -12 408 -12 C613 -12 767 141 767 350 L767 350 Z M714 350 C714 169 582 36 408 36 C234 36 102 169 102 350 C102 531 234 664 408 664 C582 664 714 531 714 350 L714 350 Z M287 800 L339 800 L339 885 L287 885 L287 800 Z M477 800 L529 800 L529 885 L477 885 L477 800 Z " />
<glyph glyph-name="multiply" unicode="&#xd7;" horiz-adv-x="543" d="M444 115 L481 147 L307 323 L482 500 L445 532 L272 358 L97 534 L60 502 L237 323 L61 146 L98 114 L272 288 L444 115 Z " />
<glyph glyph-name="Oslash" unicode="&#xd8;" horiz-adv-x="812" d="M66 22 L104 -10 L176 67 C237 17 317 -12 406 -12 C611 -12 765 141 765 350 C765 449 730 536 671 599 L747 680 L709 712 L635 633 C574 683 494 712 406 712 C201 712 47 559 47 350 C47 251 81 164 140 101 L66 22 Z M712 350 C712 169 580 36 406 36 C330 36 262 61 210 104 L636 560 C683 506 712 433 712 350 L712 350 Z M100 350 C100 531 232 664 406 664 C482 664 548 639 601 596 L176 140 C128 194 100 266 100 350 L100 350 Z " />
<glyph glyph-name="Ugrave" unicode="&#xd9;" horiz-adv-x="704" d="M92 700 L92 265 C92 149 144 -12 352 -12 C560 -12 612 149 612 265 L612 700 L560 700 L560 265 C560 169 517 36 352 36 C187 36 144 169 144 265 L144 700 L92 700 Z M351 757 L410 757 L295 899 L231 899 L351 757 Z " />
<glyph glyph-name="Uacute" unicode="&#xda;" horiz-adv-x="704" d="M92 700 L92 265 C92 149 144 -12 352 -12 C560 -12 612 149 612 265 L612 700 L560 700 L560 265 C560 169 517 36 352 36 C187 36 144 169 144 265 L144 700 L92 700 Z M484 899 L420 899 L305 757 L364 757 L484 899 Z " />
<glyph glyph-name="Ucircumflex" unicode="&#xdb;" horiz-adv-x="704" d="M92 700 L92 265 C92 149 144 -12 352 -12 C560 -12 612 149 612 265 L612 700 L560 700 L560 265 C560 169 517 36 352 36 C187 36 144 169 144 265 L144 700 L92 700 Z M210 758 L272 758 L351 860 L353 860 L432 758 L494 758 L380 904 L323 904 L210 758 Z " />
<glyph glyph-name="Udieresis" unicode="&#xdc;" horiz-adv-x="704" d="M92 700 L92 265 C92 149 144 -12 352 -12 C560 -12 612 149 612 265 L612 700 L560 700 L560 265 C560 169 517 36 352 36 C187 36 144 169 144 265 L144 700 L92 700 Z M231 800 L283 800 L283 885 L231 885 L231 800 Z M421 800 L473 800 L473 885 L421 885 L421 800 Z " />
<glyph glyph-name="Yacute" unicode="&#xdd;" horiz-adv-x="640" d="M346 0 L346 296 L612 700 L552 700 L321 346 L319 346 L87 700 L28 700 L294 296 L294 0 L346 0 Z M470 899 L406 899 L291 757 L350 757 L470 899 Z " />
<glyph glyph-name="Thorn" unicode="&#xde;" horiz-adv-x="554" d="M101 0 L153 0 L153 177 L277 177 C438 177 525 240 525 361 C525 485 433 543 277 543 L153 543 L153 700 L101 700 L101 0 Z M153 496 L277 496 C400 496 472 452 472 361 C472 271 403 223 277 223 L153 223 L153 496 Z " />
<glyph glyph-name="germandbls" unicode="&#xdf;" horiz-adv-x="575" d="M132 0 L132 562 C132 650 189 693 270 693 C370 693 411 633 411 576 C411 511 360 463 325 435 C299 414 280 399 280 377 C280 351 310 336 349 315 C406 286 491 241 491 159 C491 78 417 42 315 42 C257 42 219 52 208 55 L198 10 C213 6 255 -4 315 -4 C447 -4 543 45 543 159 C543 267 438 322 370 357 C350 367 339 374 339 381 C339 386 345 391 354 399 C397 432 463 492 463 576 C463 656 407 739 270 739 C159 739 81 682 81 562 L81 0 L132 0 Z " />
<glyph glyph-name="agrave" unicode="&#xe0;" horiz-adv-x="543" d="M273 602 L333 602 L217 744 L153 744 L273 602 Z M405 253 L405 112 C359 70 300 34 230 34 C164 34 88 56 88 126 C88 230 237 250 405 253 L405 253 Z M512 47 C512 47 506 46 502 46 C478 46 456 62 456 105 L456 331 C456 452 369 512 262 512 C177 512 106 481 66 441 L99 408 C132 441 191 466 262 466 C340 466 405 421 405 331 L405 298 C210 295 36 269 36 126 C36 21 139 -12 230 -12 C305 -12 367 22 418 65 L420 65 C431 17 466 0 502 0 C513 0 519 1 520 2 L512 47 Z " />
<glyph glyph-name="aacute" unicode="&#xe1;" horiz-adv-x="543" d="M324 744 L208 602 L268 602 L388 744 L324 744 Z M405 253 L405 112 C359 70 300 34 230 34 C164 34 88 56 88 126 C88 230 237 250 405 253 L405 253 Z M512 47 C512 47 506 46 502 46 C478 46 456 62 456 105 L456 331 C456 452 369 512 262 512 C177 512 106 481 66 441 L99 408 C132 441 191 466 262 466 C340 466 405 421 405 331 L405 298 C210 295 36 269 36 126 C36 21 139 -12 230 -12 C305 -12 367 22 418 65 L420 65 C431 17 466 0 502 0 C513 0 519 1 520 2 L512 47 Z " />
<glyph glyph-name="acircumflex" unicode="&#xe2;" horiz-adv-x="543" d="M123 602 L185 602 L264 704 L266 704 L345 602 L406 602 L293 748 L236 748 L123 602 Z M405 253 L405 112 C359 70 300 34 230 34 C164 34 88 56 88 126 C88 230 237 250 405 253 L405 253 Z M512 47 C512 47 506 46 502 46 C478 46 456 62 456 105 L456 331 C456 452 369 512 262 512 C177 512 106 481 66 441 L99 408 C132 441 191 466 262 466 C340 466 405 421 405 331 L405 298 C210 295 36 269 36 126 C36 21 139 -12 230 -12 C305 -12 367 22 418 65 L420 65 C431 17 466 0 502 0 C513 0 519 1 520 2 L512 47 Z " />
<glyph glyph-name="atilde" unicode="&#xe3;" horiz-adv-x="543" d="M405 253 L405 112 C359 70 300 34 230 34 C164 34 88 56 88 126 C88 230 237 250 405 253 L405 253 Z M512 47 C512 47 506 46 502 46 C478 46 456 62 456 105 L456 331 C456 452 369 512 262 512 C177 512 106 481 66 441 L99 408 C132 441 191 466 262 466 C340 466 405 421 405 331 L405 298 C210 295 36 269 36 126 C36 21 139 -12 230 -12 C305 -12 367 22 418 65 L420 65 C431 17 466 0 502 0 C513 0 519 1 520 2 L512 47 Z M148 627 C155 655 171 674 190 674 C211 674 232 661 255 647 C277 634 305 621 330 621 C375 621 406 653 420 714 L371 714 C363 686 348 669 329 669 C314 669 294 680 279 689 C251 706 220 722 188 722 C146 722 112 688 99 627 L148 627 Z " />
<glyph glyph-name="adieresis" unicode="&#xe4;" horiz-adv-x="543" d="M140 615 L192 615 L192 700 L140 700 L140 615 Z M330 615 L382 615 L382 700 L330 700 L330 615 Z M405 253 L405 112 C359 70 300 34 230 34 C164 34 88 56 88 126 C88 230 237 250 405 253 L405 253 Z M512 47 C512 47 506 46 502 46 C478 46 456 62 456 105 L456 331 C456 452 369 512 262 512 C177 512 106 481 66 441 L99 408 C132 441 191 466 262 466 C340 466 405 421 405 331 L405 298 C210 295 36 269 36 126 C36 21 139 -12 230 -12 C305 -12 367 22 418 65 L420 65 C431 17 466 0 502 0 C513 0 519 1 520 2 L512 47 Z " />
<glyph glyph-name="aring" unicode="&#xe5;" horiz-adv-x="543" d="M355 684 C355 737 311 778 260 778 C208 778 165 737 165 684 C165 630 208 590 260 590 C311 590 355 630 355 684 L355 684 Z M309 684 C309 656 286 636 260 636 C233 636 211 656 211 684 C211 711 233 732 260 732 C286 732 309 711 309 684 L309 684 Z M405 253 L405 112 C359 70 300 34 230 34 C164 34 88 56 88 126 C88 230 237 250 405 253 L405 253 Z M512 47 C512 47 506 46 502 46 C478 46 456 62 456 105 L456 331 C456 452 369 512 262 512 C177 512 106 481 66 441 L99 408 C132 441 191 466 262 466 C340 466 405 421 405 331 L405 298 C210 295 36 269 36 126 C36 21 139 -12 230 -12 C305 -12 367 22 418 65 L420 65 C431 17 466 0 502 0 C513 0 519 1 520 2 L512 47 Z " />
<glyph glyph-name="ae" unicode="&#xe6;" horiz-adv-x="909" d="M98 408 C130 441 187 466 257 466 C335 466 397 420 397 329 L397 297 C206 294 36 268 36 125 C36 22 137 -12 226 -12 C289 -12 366 7 408 63 C420 79 428 96 433 125 L435 125 C474 40 558 -12 667 -12 C782 -12 856 58 856 58 L824 92 C824 92 764 34 667 34 C545 34 453 119 449 248 L862 248 C862 248 866 282 866 301 C866 416 794 512 651 512 C553 512 474 464 436 380 L434 380 C417 467 350 512 257 512 C174 512 105 481 65 441 L98 408 Z M226 34 C162 34 88 57 88 125 C88 229 233 249 397 252 L397 163 C397 66 294 34 226 34 L226 34 Z M651 466 C762 466 817 384 813 293 L453 293 C470 401 553 466 651 466 L651 466 Z " />
<glyph glyph-name="ccedilla" unicode="&#xe7;" horiz-adv-x="529" d="M496 426 C460 478 397 512 309 512 C163 512 44 414 44 250 C44 111 131 11 266 -8 L212 -89 L241 -118 C257 -108 273 -103 293 -103 C315 -103 341 -112 341 -133 C341 -158 310 -166 286 -166 C256 -166 228 -159 215 -151 L191 -191 C209 -202 248 -212 286 -212 C337 -212 393 -192 393 -135 C393 -84 343 -68 308 -68 C293 -68 280 -72 271 -76 C270 -76 270 -75 269 -75 L319 -11 C431 -9 493 65 500 74 L463 102 C463 102 413 34 315 34 C184 34 96 123 96 250 C96 385 192 466 309 466 C381 466 430 440 458 400 L496 426 Z " />
<glyph glyph-name="egrave" unicode="&#xe8;" horiz-adv-x="575" d="M284 602 L344 602 L228 744 L165 744 L284 602 Z M529 247 C529 247 532 281 532 300 C532 415 457 512 308 512 C162 512 43 414 43 250 C43 95 163 -12 325 -12 C445 -12 522 58 522 58 L491 92 C491 92 427 34 325 34 C196 34 99 118 95 247 L529 247 Z M308 466 C425 466 483 384 479 291 L99 291 C116 401 204 466 308 466 L308 466 Z " />
<glyph glyph-name="eacute" unicode="&#xe9;" horiz-adv-x="575" d="M253 602 L313 602 L433 744 L369 744 L253 602 Z M529 247 C529 247 532 281 532 300 C532 415 457 512 308 512 C162 512 43 414 43 250 C43 95 163 -12 325 -12 C445 -12 522 58 522 58 L491 92 C491 92 427 34 325 34 C196 34 99 118 95 247 L529 247 Z M308 466 C425 466 483 384 479 291 L99 291 C116 401 204 466 308 466 L308 466 Z " />
<glyph glyph-name="ecircumflex" unicode="&#xea;" horiz-adv-x="575" d="M159 602 L221 602 L300 704 L302 704 L381 602 L443 602 L329 748 L272 748 L159 602 Z M529 247 C529 247 532 281 532 300 C532 415 457 512 308 512 C162 512 43 414 43 250 C43 95 163 -12 325 -12 C445 -12 522 58 522 58 L491 92 C491 92 427 34 325 34 C196 34 99 118 95 247 L529 247 Z M308 466 C425 466 483 384 479 291 L99 291 C116 401 204 466 308 466 L308 466 Z " />
<glyph glyph-name="edieresis" unicode="&#xeb;" horiz-adv-x="575" d="M180 615 L232 615 L232 700 L180 700 L180 615 Z M370 615 L422 615 L422 700 L370 700 L370 615 Z M529 247 C529 247 532 281 532 300 C532 415 457 512 308 512 C162 512 43 414 43 250 C43 95 163 -12 325 -12 C445 -12 522 58 522 58 L491 92 C491 92 427 34 325 34 C196 34 99 118 95 247 L529 247 Z M308 466 C425 466 483 384 479 291 L99 291 C116 401 204 466 308 466 L308 466 Z " />
<glyph glyph-name="igrave" unicode="&#xec;" horiz-adv-x="218" d="M84 0 L135 0 L135 500 L84 500 L84 0 Z M79 602 L138 602 L23 744 L-41 744 L79 602 Z " />
<glyph glyph-name="iacute" unicode="&#xed;" horiz-adv-x="218" d="M84 0 L134 0 L134 500 L84 500 L84 0 Z M259 744 L196 744 L80 602 L140 602 L259 744 Z " />
<glyph glyph-name="icircumflex" unicode="&#xee;" horiz-adv-x="218" d="M84 0 L135 0 L135 500 L84 500 L84 0 Z M-31 602 L31 602 L110 704 L112 704 L191 602 L252 602 L139 748 L82 748 L-31 602 Z " />
<glyph glyph-name="idieresis" unicode="&#xef;" horiz-adv-x="218" d="M84 0 L134 0 L134 500 L84 500 L84 0 Z M-11 615 L41 615 L41 700 L-11 700 L-11 615 Z M179 615 L231 615 L231 700 L179 700 L179 615 Z " />
<glyph glyph-name="eth" unicode="&#xf0;" horiz-adv-x="608" d="M425 701 L403 740 L277 671 C240 697 202 722 164 745 L141 707 C172 687 204 667 235 646 L118 583 L141 544 L276 617 C344 567 419 503 458 438 L457 437 C423 471 360 500 303 500 C153 500 44 391 44 244 C44 97 153 -12 303 -12 C456 -12 563 97 563 244 C562 410 452 538 317 642 L425 701 Z M511 244 C511 124 425 34 303 34 C184 34 96 124 96 244 C96 364 184 454 303 454 C424 454 511 366 511 244 L511 244 Z " />
<glyph glyph-name="ntilde" unicode="&#xf1;" horiz-adv-x="612" d="M132 0 L132 368 C166 427 228 466 310 466 C428 466 488 402 488 306 L488 0 L538 0 L538 306 C538 430 463 512 310 512 C240 512 172 476 134 432 L132 432 L132 500 L81 500 L81 0 L132 0 Z M199 627 C207 655 223 674 242 674 C263 674 283 661 306 647 C328 633 356 621 382 621 C427 621 458 653 471 714 L422 714 C415 686 400 669 380 669 C366 669 346 680 330 689 C303 705 271 722 240 722 C197 722 164 688 151 627 L199 627 Z " />
<glyph glyph-name="ograve" unicode="&#xf2;" horiz-adv-x="618" d="M574 250 C574 400 464 512 308 512 C154 512 43 400 43 250 C43 100 154 -12 308 -12 C464 -12 574 100 574 250 L574 250 Z M522 250 C522 126 433 34 308 34 C185 34 95 126 95 250 C95 374 185 466 308 466 C433 466 522 374 522 250 L522 250 Z M288 602 L348 602 L232 744 L168 744 L288 602 Z " />
<glyph glyph-name="oacute" unicode="&#xf3;" horiz-adv-x="618" d="M574 250 C574 400 464 512 308 512 C154 512 43 400 43 250 C43 100 154 -12 308 -12 C464 -12 574 100 574 250 L574 250 Z M522 250 C522 126 433 34 308 34 C185 34 95 126 95 250 C95 374 185 466 308 466 C433 466 522 374 522 250 L522 250 Z M448 744 L384 744 L268 602 L328 602 L448 744 Z " />
<glyph glyph-name="ocircumflex" unicode="&#xf4;" horiz-adv-x="618" d="M574 250 C574 400 464 512 308 512 C154 512 43 400 43 250 C43 100 154 -12 308 -12 C464 -12 574 100 574 250 L574 250 Z M522 250 C522 126 433 34 308 34 C185 34 95 126 95 250 C95 374 185 466 308 466 C433 466 522 374 522 250 L522 250 Z M166 602 L228 602 L307 704 L309 704 L388 602 L450 602 L336 748 L279 748 L166 602 Z " />
<glyph glyph-name="otilde" unicode="&#xf5;" horiz-adv-x="618" d="M574 250 C574 400 464 512 308 512 C154 512 43 400 43 250 C43 100 154 -12 308 -12 C464 -12 574 100 574 250 L574 250 Z M522 250 C522 126 433 34 308 34 C185 34 95 126 95 250 C95 374 185 466 308 466 C433 466 522 374 522 250 L522 250 Z M197 627 C204 655 220 674 239 674 C260 674 281 661 304 647 C326 634 354 621 379 621 C424 621 455 653 469 714 L420 714 C412 686 397 669 378 669 C363 669 343 680 328 689 C300 706 269 722 237 722 C195 722 161 688 148 627 L197 627 Z " />
<glyph glyph-name="odieresis" unicode="&#xf6;" horiz-adv-x="618" d="M574 250 C574 400 464 512 308 512 C154 512 43 400 43 250 C43 100 154 -12 308 -12 C464 -12 574 100 574 250 L574 250 Z M522 250 C522 126 433 34 308 34 C185 34 95 126 95 250 C95 374 185 466 308 466 C433 466 522 374 522 250 L522 250 Z M187 615 L239 615 L239 700 L187 700 L187 615 Z M377 615 L429 615 L429 700 L377 700 L377 615 Z " />
<glyph glyph-name="divide" unicode="&#xf7;" horiz-adv-x="695" d="M75 301 L620 301 L620 347 L75 347 L75 301 Z M322 93 L374 93 L374 178 L322 178 L322 93 Z M322 469 L374 469 L374 554 L322 554 L322 469 Z " />
<glyph glyph-name="oslash" unicode="&#xf8;" horiz-adv-x="616" d="M546 528 L477 456 C433 491 375 512 308 512 C154 512 43 400 43 250 C43 181 66 122 106 76 L33 2 L69 -30 L140 43 C185 8 242 -12 308 -12 C464 -12 574 100 574 250 C574 318 551 378 512 424 L582 496 L546 528 Z M522 250 C522 126 434 34 308 34 C257 34 210 51 175 78 L476 387 C505 351 522 303 522 250 L522 250 Z M95 250 C95 374 185 466 308 466 C361 466 407 449 442 421 L141 112 C112 148 95 196 95 250 L95 250 Z " />
<glyph glyph-name="ugrave" unicode="&#xf9;" horiz-adv-x="612" d="M481 500 L481 132 C446 73 384 34 302 34 C184 34 125 98 125 194 L125 500 L74 500 L74 194 C74 70 149 -12 302 -12 C372 -12 441 24 479 68 L481 68 L481 0 L531 0 L531 500 L481 500 Z M293 602 L352 602 L237 744 L173 744 L293 602 Z " />
<glyph glyph-name="uacute" unicode="&#xfa;" horiz-adv-x="612" d="M481 500 L481 132 C446 73 384 34 302 34 C184 34 125 98 125 194 L125 500 L74 500 L74 194 C74 70 149 -12 302 -12 C372 -12 441 24 479 68 L481 68 L481 0 L531 0 L531 500 L481 500 Z M432 744 L368 744 L252 602 L312 602 L432 744 Z " />
<glyph glyph-name="ucircumflex" unicode="&#xfb;" horiz-adv-x="612" d="M481 500 L481 132 C446 73 384 34 302 34 C184 34 125 98 125 194 L125 500 L74 500 L74 194 C74 70 149 -12 302 -12 C372 -12 441 24 479 68 L481 68 L481 0 L531 0 L531 500 L481 500 Z M161 602 L222 602 L302 704 L304 704 L383 602 L444 602 L331 748 L274 748 L161 602 Z " />
<glyph glyph-name="udieresis" unicode="&#xfc;" horiz-adv-x="612" d="M481 500 L481 132 C446 73 384 34 302 34 C184 34 125 98 125 194 L125 500 L74 500 L74 194 C74 70 149 -12 302 -12 C372 -12 441 24 479 68 L481 68 L481 0 L531 0 L531 500 L481 500 Z M182 615 L234 615 L234 700 L182 700 L182 615 Z M372 615 L424 615 L424 700 L372 700 L372 615 Z " />
<glyph glyph-name="yacute" unicode="&#xfd;" horiz-adv-x="551" d="M23 500 L248 2 L213 -75 C184 -137 157 -159 97 -159 C79 -159 60 -157 43 -154 L33 -197 C54 -202 76 -204 97 -204 C190 -204 223 -172 259 -93 L529 500 L475 500 L276 61 L274 61 L77 500 L23 500 Z M419 744 L355 744 L239 602 L299 602 L419 744 Z " />
<glyph glyph-name="thorn" unicode="&#xfe;" horiz-adv-x="597" d="M80 -200 L131 -200 L131 60 L133 60 C174 15 230 -12 298 -12 C439 -12 554 100 554 250 C554 400 439 512 298 512 C230 512 174 485 133 441 L131 441 L131 730 L80 730 L80 -200 Z M298 34 C229 34 168 68 131 125 L131 373 C168 431 229 466 298 466 C410 466 502 374 502 250 C502 126 410 34 298 34 L298 34 Z " />
<glyph glyph-name="ydieresis" unicode="&#xff;" horiz-adv-x="551" d="M23 500 L248 2 L213 -75 C184 -137 157 -159 97 -159 C79 -159 60 -157 43 -154 L33 -197 C54 -202 76 -204 97 -204 C190 -204 223 -172 259 -93 L529 500 L475 500 L276 61 L274 61 L77 500 L23 500 Z M162 615 L214 615 L214 700 L162 700 L162 615 Z M352 615 L404 615 L404 700 L352 700 L352 615 Z " />
<glyph glyph-name="OE" unicode="&#x152;" horiz-adv-x="959" d="M531 387 L531 654 L903 654 L903 700 L397 700 C198 700 50 553 50 350 C50 147 198 0 397 0 L915 0 L915 46 L531 46 L531 341 L880 341 L880 387 L531 387 Z M397 46 C229 46 103 175 103 350 C103 525 229 654 397 654 L479 654 L479 46 L397 46 Z " />
<glyph glyph-name="oe" unicode="&#x153;" horiz-adv-x="1022" d="M938 92 C938 92 878 34 781 34 C656 34 566 122 563 247 L976 247 C976 247 979 281 979 300 C979 415 908 512 765 512 C659 512 571 456 537 357 L535 357 C501 450 415 512 303 512 C152 512 44 400 44 250 C44 100 152 -12 303 -12 C417 -12 503 52 537 146 L539 146 C574 49 665 -12 781 -12 C896 -12 970 58 970 58 L938 92 Z M765 466 C859 466 911 407 923 333 C926 320 927 304 927 291 L567 291 C583 401 666 466 765 466 L765 466 Z M303 466 C425 466 511 374 511 250 C511 126 425 34 303 34 C183 34 96 126 96 250 C96 374 183 466 303 466 L303 466 Z " />
<glyph glyph-name="Scaron" unicode="&#x160;" horiz-adv-x="524" d="M266 36 C145 36 80 110 80 110 L44 78 C44 78 123 -12 266 -12 C397 -12 478 69 478 161 C478 289 376 328 276 377 C192 417 111 448 111 538 C111 607 178 664 276 664 C377 664 428 611 428 611 L462 644 C462 644 397 712 276 712 C147 712 58 634 58 538 C58 421 157 380 252 334 C334 294 424 257 424 161 C424 94 364 36 266 36 L266 36 Z M239 758 L296 758 L410 904 L348 904 L269 803 L267 803 L188 904 L126 904 L239 758 Z " />
<glyph glyph-name="scaron" unicode="&#x161;" horiz-adv-x="436" d="M222 34 C124 34 73 92 73 92 L39 61 C39 61 104 -12 222 -12 C335 -12 396 48 396 121 C396 216 308 249 227 276 C166 296 103 318 103 377 C103 429 159 466 230 466 C309 466 348 425 348 425 L382 457 C382 457 330 512 230 512 C129 512 51 456 51 377 C51 286 130 259 211 232 C277 211 344 189 344 121 C344 74 300 34 222 34 L222 34 Z M206 602 L263 602 L377 748 L315 748 L236 647 L234 647 L155 748 L93 748 L206 602 Z " />
<glyph glyph-name="Ydieresis" unicode="&#x178;" horiz-adv-x="640" d="M346 0 L346 296 L612 700 L552 700 L321 346 L319 346 L87 700 L28 700 L294 296 L294 0 L346 0 Z M200 800 L252 800 L252 885 L200 885 L200 800 Z M390 800 L442 800 L442 885 L390 885 L390 800 Z " />
<glyph glyph-name="Zcaron" unicode="&#x17d;" horiz-adv-x="567" d="M41 654 L463 654 L463 652 L30 44 L30 0 L534 0 L534 46 L95 46 L95 48 L528 656 L528 700 L41 700 L41 654 Z M253 758 L311 758 L424 904 L362 904 L283 803 L281 803 L202 904 L141 904 L253 758 Z " />
<glyph glyph-name="zcaron" unicode="&#x17e;" horiz-adv-x="467" d="M267 602 L380 748 L319 748 L239 647 L237 647 L158 748 L97 748 L209 602 L267 602 Z M95 47 L424 461 L424 500 L44 500 L44 455 L358 455 L358 453 L29 39 L29 0 L435 0 L435 45 L95 45 L95 47 Z " />
<glyph glyph-name="florin" unicode="&#x192;" horiz-adv-x="503" d="M478 687 C457 703 428 712 398 712 C298 712 260 638 245 560 L216 410 L91 410 C91 410 91 366 91 366 L207 366 L140 18 C131 -31 105 -91 36 -91 C18 -91 4 -89 -7 -83 L-30 -123 C-10 -134 11 -137 36 -137 C144 -137 177 -59 191 9 L259 366 L386 366 C386 366 386 410 386 410 L269 410 L296 551 C307 610 332 666 398 666 C418 666 437 660 450 650 L478 687 Z " />
<glyph glyph-name="circumflex" unicode="&#x2c6;" horiz-adv-x="383" d="M50 602 L112 602 L191 704 L193 704 L272 602 L333 602 L220 748 L163 748 L50 602 Z " />
<glyph glyph-name="caron" unicode="&#x2c7;" horiz-adv-x="383" d="M333 748 L272 748 L193 647 L191 647 L112 748 L50 748 L163 602 L220 602 L333 748 Z " />
<glyph glyph-name="tilde" unicode="&#x2dc;" horiz-adv-x="421" d="M98 627 C106 655 122 674 141 674 C162 674 183 662 205 647 C228 634 255 621 281 621 C326 621 357 653 371 714 L321 714 C314 686 299 669 280 669 C265 669 245 680 229 689 C202 706 171 722 139 722 C96 722 63 688 50 627 L98 627 Z " />
<glyph glyph-name="endash" unicode="&#x2013;" horiz-adv-x="473" d="M55 237 L418 237 L418 283 L55 283 L55 237 Z " />
<glyph glyph-name="emdash" unicode="&#x2014;" horiz-adv-x="687" d="M55 237 L632 237 L632 283 L55 283 L55 237 Z " />
<glyph glyph-name="quoteleft" unicode="&#x2018;" horiz-adv-x="232" d="M170 467 L99 701 L46 701 L120 467 L170 467 Z " />
<glyph glyph-name="quoteright" unicode="&#x2019;" horiz-adv-x="232" d="M186 701 L133 701 L62 467 L113 467 L186 701 Z " />
<glyph glyph-name="quotesinglbase" unicode="&#x201a;" horiz-adv-x="209" d="M143 95 L90 95 L19 -139 L70 -139 L143 95 Z " />
<glyph glyph-name="quotedblleft" unicode="&#x201c;" horiz-adv-x="395" d="M46 701 L120 467 L170 467 L99 701 L46 701 Z M209 701 L283 467 L333 467 L262 701 L209 701 Z " />
<glyph glyph-name="quotedblright" unicode="&#x201d;" horiz-adv-x="395" d="M62 467 L113 467 L186 701 L133 701 L62 467 Z M225 467 L276 467 L349 701 L296 701 L225 467 Z " />
<glyph glyph-name="quotedblbase" unicode="&#x201e;" horiz-adv-x="372" d="M143 95 L90 95 L19 -139 L70 -139 L143 95 Z M306 95 L253 95 L182 -139 L233 -139 L306 95 Z " />
<glyph glyph-name="dagger" unicode="&#x2020;" horiz-adv-x="523" d="M36 493 L36 447 L235 447 L235 -125 L287 -125 L287 447 L487 447 L487 493 L287 493 L287 700 L235 700 L235 493 L36 493 Z " />
<glyph glyph-name="daggerdbl" unicode="&#x2021;" horiz-adv-x="583" d="M517 118 L317 118 L317 457 L517 457 L517 503 L317 503 L317 700 L265 700 L265 503 L66 503 L66 457 L265 457 L265 118 L66 118 L66 72 L265 72 L265 -125 L317 -125 L317 72 L517 72 L517 118 Z " />
<glyph glyph-name="bullet" unicode="&#x2022;" horiz-adv-x="490" d="M245 522 C142 522 77 447 77 355 C77 262 142 186 245 186 C348 186 413 262 413 355 C413 447 348 522 245 522 L245 522 Z " />
<glyph glyph-name="ellipsis" unicode="&#x2026;" horiz-adv-x="842" d="M118 0 L118 85 L66 85 L66 0 L118 0 Z M447 0 L447 85 L395 85 L395 0 L447 0 Z M776 0 L776 85 L724 85 L724 0 L776 0 Z " />
<glyph glyph-name="perthousand" unicode="&#x2030;" horiz-adv-x="1203" d="M370 539 C370 632 297 704 204 704 C111 704 38 632 38 539 C38 446 111 374 204 374 C297 374 370 446 370 539 L370 539 Z M770 161 C770 254 697 326 604 326 C511 326 438 254 438 161 C438 68 511 -4 604 -4 C697 -4 770 68 770 161 L770 161 Z M317 539 C317 473 267 422 204 422 C141 422 91 473 91 539 C91 605 141 656 204 656 C267 656 317 605 317 539 L317 539 Z M717 161 C717 95 667 44 604 44 C541 44 491 95 491 161 C491 227 541 278 604 278 C667 278 717 227 717 161 L717 161 Z M596 718 L150 -18 L209 -18 L655 718 L596 718 Z M1167 161 C1167 254 1094 326 1001 326 C908 326 835 254 835 161 C835 68 908 -4 1001 -4 C1094 -4 1167 68 1167 161 L1167 161 Z M1114 161 C1114 95 1064 44 1001 44 C938 44 888 95 888 161 C888 227 938 278 1001 278 C1064 278 1114 227 1114 161 L1114 161 Z " />
<glyph glyph-name="guilsinglleft" unicode="&#x2039;" horiz-adv-x="309" d="M248 51 L114 255 L249 462 L190 462 L55 256 L189 51 L248 51 Z " />
<glyph glyph-name="guilsinglright" unicode="&#x203a;" horiz-adv-x="309" d="M254 256 L119 462 L60 462 L195 255 L61 51 L120 51 L254 256 Z " />
<glyph glyph-name="Euro" unicode="&#x20ac;" horiz-adv-x="762" d="M686 129 C630 71 550 36 459 36 C322 36 211 118 171 242 L552 242 L569 288 L159 288 C155 308 153 328 153 350 C153 372 155 393 159 414 L616 414 L633 460 L172 460 C212 582 322 664 459 664 C545 664 621 633 676 579 L695 628 C633 681 551 712 459 712 C292 712 158 611 115 460 L46 460 L46 414 L105 414 C102 393 100 372 100 350 C100 328 101 308 104 288 L44 288 L44 242 L115 242 C158 90 291 -12 459 -12 C564 -12 656 29 720 96 L686 129 Z " />
<glyph glyph-name="trademark" unicode="&#x2122;" horiz-adv-x="895" d="M38 654 L169 654 L169 293 L221 293 L221 654 L352 654 L352 700 L38 700 L38 654 Z M755 293 L807 293 L807 700 L754 700 L613 361 L611 361 L469 700 L416 700 L416 293 L468 293 L468 569 L470 569 L585 293 L640 293 L753 569 L755 569 L755 293 Z " />
</font>
</svg>
